<svg width="40" height="40" viewBox="0 0 40 40" fill="none" xmlns="http://www.w3.org/2000/svg">
<path d="M3.33301 33.3333C3.33301 31.762 3.33301 30.9763 3.82116 30.4882C4.30932 30 5.09499 30 6.66634 30H8.33301C9.90436 30 10.69 30 11.1782 30.4882C11.6663 30.9763 11.6663 31.762 11.6663 33.3333C11.6663 34.9047 11.6663 35.6903 11.1782 36.1785C10.69 36.6667 9.90436 36.6667 8.33301 36.6667H6.66634C5.09499 36.6667 4.30932 36.6667 3.82116 36.1785C3.33301 35.6903 3.33301 34.9047 3.33301 33.3333Z" stroke="#0E4F53" stroke-width="2.5"/>
<path d="M28.333 33.3333C28.333 31.762 28.333 30.9763 28.8212 30.4882C29.3093 30 30.095 30 31.6663 30H33.333C34.9043 30 35.69 30 36.1782 30.4882C36.6663 30.9763 36.6663 31.762 36.6663 33.3333C36.6663 34.9047 36.6663 35.6903 36.1782 36.1785C35.69 36.6667 34.9043 36.6667 33.333 36.6667H31.6663C30.095 36.6667 29.3093 36.6667 28.8212 36.1785C28.333 35.6903 28.333 34.9047 28.333 33.3333Z" stroke="#0E4F53" stroke-width="2.5"/>
<path d="M32.5 29.1667C32.5 23.6512 31.4208 22.5 26.25 22.5H24.1667M7.5 29.1667C7.5 23.6512 8.57917 22.5 13.75 22.5H15.8333M20 11.6667V18.3334" stroke="#0E4F53" stroke-width="2.5" stroke-linecap="round" stroke-linejoin="round"/>
<path d="M16.6663 3.33331H23.333C26.3583 3.33331 26.6663 4.87488 26.6663 7.49998C26.6663 10.1251 26.3583 11.6666 23.333 11.6666H16.6663C13.641 11.6666 13.333 10.1251 13.333 7.49998C13.333 4.87488 13.641 3.33331 16.6663 3.33331Z" stroke="#0E4F53" stroke-width="2.5"/>
<path d="M24.1663 22.5C24.1663 24.8011 22.3008 26.6666 19.9997 26.6666C17.6985 26.6666 15.833 24.8011 15.833 22.5C15.833 20.1988 17.6985 18.3333 19.9997 18.3333C22.3008 18.3333 24.1663 20.1988 24.1663 22.5Z" stroke="#0E4F53" stroke-width="2.5"/>
</svg>
