<svg width="24" height="24" viewBox="0 0 24 24" fill="none" xmlns="http://www.w3.org/2000/svg">
<path d="M23.04 18.336H8.92798L8.39998 16.368H19.968C20.16 16.368 20.352 16.224 20.4 16.08L23.52 8.25605C23.568 8.11205 23.568 7.92005 23.472 7.82405C23.376 7.68005 23.232 7.63205 23.088 7.63205H20.928C20.64 4.17605 17.808 1.48805 14.352 1.48805H14.304C10.944 1.48805 8.01598 4.08005 7.77598 7.63205H5.99998L4.36798 1.63205C4.31998 1.39205 4.12798 1.24805 3.88798 1.24805H0.95998C0.67198 1.24805 0.47998 1.44005 0.47998 1.72805C0.47998 2.01605 0.67198 2.20805 0.95998 2.20805H3.55198L8.11198 18.912C8.15998 19.104 8.35198 19.248 8.59198 19.248H9.55198C9.31198 19.584 9.16798 20.016 9.16798 20.496C9.16798 21.696 10.176 22.704 11.376 22.704C12.576 22.704 13.584 21.696 13.584 20.496C13.584 20.016 13.44 19.632 13.2 19.248H18.432C18.192 19.584 18.048 20.016 18.048 20.496C18.048 21.696 19.056 22.704 20.256 22.704C21.456 22.704 22.464 21.696 22.464 20.496C22.464 20.016 22.32 19.632 22.08 19.248H23.04C23.328 19.248 23.52 19.056 23.52 18.768C23.52 18.48 23.28 18.336 23.04 18.336ZM19.92 7.58405H17.904C17.904 7.10405 17.856 6.57605 17.76 6.14405H19.584C19.776 6.57605 19.872 7.10405 19.92 7.58405ZM17.76 9.98405C17.856 9.50405 17.904 9.02405 17.904 8.54405H19.92C19.872 9.07205 19.776 9.55205 19.584 9.98405H17.76ZM19.152 10.944C18.576 11.952 17.664 12.72 16.608 13.2C17.04 12.576 17.376 11.808 17.568 10.944H19.152ZM19.152 5.18405H17.568C17.328 4.27205 16.992 3.50405 16.608 2.92805C17.664 3.36005 18.576 4.17605 19.152 5.18405ZM14.832 2.54405C15.552 2.83205 16.224 3.79205 16.608 5.18405H14.832V2.54405ZM14.832 6.14405H16.8C16.896 6.57605 16.944 7.05605 16.944 7.58405H14.784V6.14405H14.832ZM14.832 8.54405H16.992C16.992 9.07205 16.896 9.55205 16.848 9.98405H14.88V8.54405H14.832ZM14.832 10.944H16.608C16.224 12.336 15.552 13.296 14.832 13.584V10.944ZM13.872 2.54405V5.18405H12.096C12.48 3.79205 13.152 2.83205 13.872 2.54405ZM11.856 9.98405C11.76 9.55205 11.712 9.02405 11.712 8.54405H13.872V9.98405H11.856ZM13.872 10.944V13.584C13.152 13.296 12.48 12.336 12.096 10.944H13.872ZM11.088 10.944C11.328 11.856 11.664 12.624 12.048 13.2C10.992 12.72 10.08 11.904 9.50398 10.944H11.088ZM9.07198 9.98405C8.92798 9.50405 8.78398 9.02405 8.73598 8.54405H10.752C10.752 9.02405 10.8 9.55205 10.896 9.98405H9.07198ZM11.712 7.58405C11.712 7.05605 11.808 6.57605 11.856 6.14405H13.824V7.58405H11.712ZM12.048 2.88005C11.616 3.50405 11.28 4.27205 11.088 5.13605H9.50398C10.08 4.17605 10.992 3.36005 12.048 2.88005ZM9.07198 6.14405H10.896C10.8 6.62405 10.8 7.10405 10.752 7.58405H8.73598C8.78398 7.10405 8.87998 6.57605 9.07198 6.14405ZM8.11198 15.408L6.23998 8.54405H7.77598C8.01598 12.048 10.944 14.64 14.304 14.688H14.352C17.712 14.688 20.64 12.048 20.88 8.54405H22.32L19.584 15.408H8.11198ZM11.328 21.792C10.656 21.792 10.08 21.216 10.08 20.544C10.08 19.872 10.656 19.296 11.328 19.296C12 19.296 12.576 19.872 12.576 20.544C12.576 21.216 12 21.792 11.328 21.792ZM20.16 21.792C19.488 21.792 18.912 21.216 18.912 20.544C18.912 19.872 19.488 19.296 20.16 19.296C20.832 19.296 21.408 19.872 21.408 20.544C21.408 21.216 20.88 21.792 20.16 21.792Z" fill="#EFEFEF"/>
</svg>
