<svg width="24" height="24" viewBox="0 0 24 24" fill="none" xmlns="http://www.w3.org/2000/svg">
<path d="M21.9878 15.7762V9.28193C21.9878 8.71943 21.6705 8.22143 21.1598 7.98368L12.3323 3.86468C12.0423 3.7287 11.7259 3.6582 11.4056 3.6582C11.0854 3.6582 10.769 3.7287 10.479 3.86468L1.65226 7.98368C1.40402 8.09747 1.19391 8.2805 1.04716 8.5108C0.900419 8.74109 0.823279 9.00886 0.82501 9.28193C0.82501 9.84518 1.14151 10.3432 1.65226 10.5809L3.73051 11.5507V14.7517C3.73051 15.8032 4.29601 16.7827 5.20801 17.3077L6.90301 18.2857C8.27304 19.0732 9.82579 19.4872 11.406 19.4864C12.9638 19.4864 14.5208 19.0859 15.9098 18.2857L17.6055 17.3077C18.0538 17.0481 18.4262 16.6755 18.6853 16.2269C18.9445 15.7784 19.0813 15.2697 19.0823 14.7517V11.5507L20.6378 10.8247V15.7762C20.3057 15.8345 20.0048 16.0078 19.7877 16.2657C19.5706 16.5237 19.4512 16.8498 19.4505 17.1869V18.9067C19.4505 19.6979 20.094 20.3414 20.886 20.3414H21.7395C22.12 20.341 22.4848 20.1898 22.7539 19.9208C23.023 19.6518 23.1744 19.2871 23.175 18.9067V17.1869C23.175 16.4804 22.6613 15.8947 21.9878 15.7762ZM17.733 14.7524C17.733 15.3232 17.4255 15.8542 16.932 16.1392L15.2363 17.1164C14.0709 17.7855 12.7506 18.1376 11.4069 18.1377C10.0631 18.1379 8.74275 17.786 7.57726 17.1172L5.88226 16.1399C5.63892 15.999 5.43682 15.7967 5.29613 15.5532C5.15544 15.3098 5.08109 15.0336 5.08051 14.7524V12.1807L10.4798 14.6999C10.7697 14.8359 11.0861 14.9064 11.4064 14.9064C11.7267 14.9064 12.043 14.8359 12.333 14.6999L17.7323 12.1807L17.733 14.7524ZM20.5905 9.35843L11.763 13.4774C11.6516 13.5298 11.5299 13.557 11.4068 13.557C11.2836 13.557 11.162 13.5298 11.0505 13.4774L2.22301 9.35843C2.20793 9.35242 2.19515 9.34177 2.18652 9.32802C2.17789 9.31427 2.17386 9.29812 2.17501 9.28193C2.17501 9.22943 2.20876 9.21293 2.22301 9.20618L11.0505 5.08718C11.1621 5.03541 11.2837 5.00859 11.4068 5.00859C11.5298 5.00859 11.6514 5.03541 11.763 5.08718L20.5905 9.20618C20.6055 9.21293 20.6385 9.22868 20.6385 9.28193C20.6385 9.33518 20.6048 9.35168 20.5905 9.35843ZM21.825 18.9067C21.825 18.9178 21.8228 18.9289 21.8185 18.9392C21.8142 18.9495 21.8078 18.9588 21.7999 18.9666C21.7919 18.9744 21.7825 18.9806 21.7721 18.9847C21.7618 18.9889 21.7507 18.9909 21.7395 18.9907H20.886C20.8749 18.9908 20.8638 18.9887 20.8535 18.9845C20.8432 18.9803 20.8338 18.9742 20.8259 18.9664C20.8179 18.9586 20.8116 18.9493 20.8072 18.9391C20.8029 18.9288 20.8006 18.9178 20.8005 18.9067V17.1869C20.8005 17.1397 20.8388 17.1022 20.886 17.1022H21.7395C21.7868 17.1022 21.825 17.1404 21.825 17.1869V18.9067Z" fill="#EFEFEF"/>
</svg>
