<svg width="24" height="24" viewBox="0 0 24 24" fill="none" xmlns="http://www.w3.org/2000/svg">
<g clip-path="url(#clip0_713_579)">
<path d="M14.25 4.875H13.125V3.75C13.125 3.65054 13.0855 3.55516 13.0152 3.48484C12.9449 3.41451 12.8495 3.375 12.75 3.375H11.25C11.1506 3.375 11.0552 3.41451 10.9849 3.48484C10.9145 3.55516 10.875 3.65054 10.875 3.75V4.875H9.75003C9.65057 4.875 9.55519 4.91451 9.48486 4.98484C9.41454 5.05516 9.37503 5.15054 9.37503 5.25V6.75C9.37503 6.84946 9.41454 6.94484 9.48486 7.01517C9.55519 7.08549 9.65057 7.125 9.75003 7.125H10.875V8.25C10.875 8.34946 10.9145 8.44484 10.9849 8.51517C11.0552 8.58549 11.1506 8.625 11.25 8.625H12.75C12.8495 8.625 12.9449 8.58549 13.0152 8.51517C13.0855 8.44484 13.125 8.34946 13.125 8.25V7.125H14.25C14.3495 7.125 14.4449 7.08549 14.5152 7.01517C14.5855 6.94484 14.625 6.84946 14.625 6.75V5.25C14.625 5.15054 14.5855 5.05516 14.5152 4.98484C14.4449 4.91451 14.3495 4.875 14.25 4.875ZM13.875 6.375H12.75C12.6506 6.375 12.5552 6.41451 12.4849 6.48483C12.4145 6.55516 12.375 6.65054 12.375 6.75V7.875H11.625V6.75C11.625 6.65054 11.5855 6.55516 11.5152 6.48483C11.4449 6.41451 11.3495 6.375 11.25 6.375H10.125V5.625H11.25C11.3495 5.625 11.4449 5.58549 11.5152 5.51516C11.5855 5.44484 11.625 5.34946 11.625 5.25V4.125H12.375V5.25C12.375 5.34946 12.4145 5.44484 12.4849 5.51516C12.5552 5.58549 12.6506 5.625 12.75 5.625H13.875V6.375ZM22.3988 6.885C22.4064 6.81902 22.4101 6.75266 22.41 6.68625C22.4082 6.34251 22.289 6.00972 22.0721 5.74305C21.8552 5.47637 21.5537 5.29182 21.2175 5.22C20.8373 5.14762 20.4438 5.22238 20.1165 5.42915C19.7893 5.63592 19.5529 5.95926 19.455 6.33375L17.805 11.0812C17.7806 11.091 17.7568 11.1022 17.7338 11.115L14.4188 13.0575C13.9115 13.3555 13.4908 13.7806 13.1981 14.291C12.9054 14.8013 12.751 15.3792 12.75 15.9675V19.5C12.6506 19.5 12.5552 19.5395 12.4849 19.6098C12.4145 19.6802 12.375 19.7755 12.375 19.875V22.875C12.375 22.9745 12.4145 23.0698 12.4849 23.1402C12.5552 23.2105 12.6506 23.25 12.75 23.25H18C18.0995 23.25 18.1949 23.2105 18.2652 23.1402C18.3355 23.0698 18.375 22.9745 18.375 22.875V19.875C18.375 19.7755 18.3355 19.6802 18.2652 19.6098C18.1949 19.5395 18.0995 19.5 18 19.5V18.675C18.0007 18.5166 18.0344 18.3601 18.099 18.2155C18.1636 18.0709 18.2576 17.9413 18.375 17.835L20.91 15.5812C21.1873 15.3386 21.3858 15.0187 21.48 14.6625L23.1075 8.57625C23.1423 8.44916 23.1599 8.318 23.16 8.18625C23.1586 7.92161 23.0874 7.66203 22.9538 7.4336C22.8202 7.20518 22.6287 7.01597 22.3988 6.885ZM20.1713 6.555C20.2173 6.36107 20.3347 6.19161 20.5002 6.08041C20.6656 5.9692 20.8668 5.92443 21.0638 5.955C21.2319 5.9902 21.3828 6.08202 21.4913 6.21512C21.5998 6.34821 21.6594 6.51452 21.66 6.68625V6.69375C21.3251 6.69997 21.0013 6.81543 20.738 7.02256C20.4747 7.22969 20.2862 7.51717 20.2013 7.84125L19.155 11.07C18.9966 10.9949 18.8268 10.9467 18.6525 10.9275L20.1713 6.555ZM17.625 22.5H13.125V20.25H17.625V22.5ZM22.3838 8.38125L20.7525 14.4713C20.6961 14.6829 20.5787 14.8733 20.415 15.0187L17.8763 17.2725C17.6798 17.4497 17.5226 17.666 17.4148 17.9075C17.3069 18.149 17.2508 18.4105 17.25 18.675V19.5H13.5V15.9675C13.5019 15.51 13.6224 15.0608 13.8498 14.6638C14.0773 14.2668 14.4038 13.9355 14.7975 13.7025L18.1088 11.7638C18.1942 11.714 18.2885 11.6816 18.3864 11.6685C18.4844 11.6553 18.5839 11.6616 18.6794 11.6871C18.7749 11.7125 18.8644 11.7566 18.9428 11.8167C19.0212 11.8768 19.087 11.9519 19.1363 12.0375C19.2337 12.2108 19.2605 12.4149 19.2113 12.6075C19.1852 12.7026 19.1407 12.7916 19.0802 12.8695C19.0197 12.9473 18.9445 13.0125 18.8588 13.0613L16.71 14.3025C16.6284 14.3544 16.57 14.4358 16.547 14.5298C16.524 14.6237 16.5381 14.7229 16.5865 14.8066C16.6349 14.8904 16.7138 14.9522 16.8067 14.9791C16.8996 15.0061 16.9993 14.9961 17.085 14.9513L19.2338 13.71C19.4055 13.6126 19.556 13.4817 19.6765 13.3252C19.7969 13.1687 19.8848 12.9897 19.935 12.7987C20.0371 12.4151 19.9832 12.0066 19.785 11.6625L19.7625 11.6287L20.9213 8.055C20.9673 7.86107 21.0847 7.69161 21.2502 7.58041C21.4156 7.4692 21.6168 7.42443 21.8138 7.455C21.9819 7.4902 22.1328 7.58202 22.2413 7.71512C22.3498 7.84821 22.4094 8.01452 22.41 8.18625C22.4113 8.25221 22.4024 8.31797 22.3838 8.38125ZM11.25 19.5V15.9675C11.2491 15.3792 11.0946 14.8013 10.802 14.291C10.5093 13.7806 10.0885 13.3555 9.58128 13.0575L6.26628 11.1112C6.24378 11.1 6.21753 11.0925 6.19503 11.0812L4.55628 6.36C4.46103 5.98005 4.22459 5.65066 3.89507 5.43888C3.56555 5.22709 3.16772 5.14882 2.78253 5.22C2.44637 5.29182 2.14486 5.47637 1.92797 5.74305C1.71108 6.00972 1.59185 6.34251 1.59003 6.68625C1.58993 6.75266 1.59369 6.81902 1.60128 6.885C1.37131 7.01597 1.17989 7.20518 1.04626 7.4336C0.912627 7.66203 0.841498 7.92161 0.840027 8.18625C0.840755 8.31772 0.85712 8.44864 0.888777 8.57625L2.52003 14.6588C2.61325 15.0164 2.81184 15.3378 3.09003 15.5812L5.62128 17.835C5.7399 17.9405 5.83494 18.0699 5.90021 18.2146C5.96547 18.3594 5.99948 18.5162 6.00003 18.675V19.5C5.90057 19.5 5.80519 19.5395 5.73486 19.6098C5.66454 19.6802 5.62503 19.7755 5.62503 19.875V22.875C5.62503 22.9745 5.66454 23.0698 5.73486 23.1402C5.80519 23.2105 5.90057 23.25 6.00003 23.25H11.25C11.3495 23.25 11.4449 23.2105 11.5152 23.1402C11.5855 23.0698 11.625 22.9745 11.625 22.875V19.875C11.625 19.7755 11.5855 19.6802 11.5152 19.6098C11.4449 19.5395 11.3495 19.5 11.25 19.5ZM2.34003 6.68625C2.34049 6.51504 2.39952 6.34914 2.5073 6.21612C2.61508 6.0831 2.76514 5.99095 2.93253 5.955C3.1349 5.92563 3.3409 5.97385 3.5092 6.08999C3.67751 6.20614 3.79569 6.38162 3.84003 6.58125L5.34753 10.9275C5.17326 10.9467 5.00343 10.9949 4.84503 11.07L3.80628 7.86C3.72174 7.53271 3.53292 7.24186 3.26837 7.03144C3.00382 6.82102 2.67794 6.70248 2.34003 6.69375V6.68625ZM6.12003 17.2725L3.58503 15.0187C3.42042 14.8725 3.30296 14.6806 3.24753 14.4675L1.61253 8.38125C1.597 8.31743 1.58945 8.25193 1.59003 8.18625C1.59049 8.01504 1.64952 7.84914 1.7573 7.71612C1.86508 7.5831 2.01514 7.49095 2.18253 7.455C2.38348 7.42484 2.58839 7.47189 2.75606 7.58668C2.92373 7.70148 3.04171 7.8755 3.08628 8.07375L4.23753 11.6287L4.21503 11.6625C4.01687 12.0066 3.96295 12.4151 4.06503 12.7987C4.11524 12.9897 4.20314 13.1687 4.32357 13.3252C4.444 13.4817 4.59453 13.6126 4.76628 13.71L6.91503 14.9513C7.00073 14.9961 7.10044 15.0061 7.19333 14.9791C7.28622 14.9522 7.36511 14.8904 7.41351 14.8066C7.46192 14.7229 7.47609 14.6237 7.45308 14.5298C7.43007 14.4358 7.37165 14.3544 7.29003 14.3025L5.14128 13.0613C5.05558 13.0125 4.98034 12.9473 4.91985 12.8695C4.85937 12.7916 4.81483 12.7026 4.78878 12.6075C4.73951 12.4149 4.76637 12.2108 4.86378 12.0375C4.91277 11.9521 4.97812 11.8771 5.05609 11.8169C5.13405 11.7567 5.22311 11.7125 5.31818 11.6867C5.41324 11.6609 5.51245 11.6542 5.61014 11.6667C5.70783 11.6793 5.80209 11.711 5.88753 11.76L9.20253 13.7025C9.59626 13.9355 9.92279 14.2668 10.1502 14.6638C10.3776 15.0608 10.4982 15.51 10.5 15.9675V19.5H6.75003V18.675C6.74939 18.4101 6.69296 18.1483 6.58441 17.9066C6.47586 17.665 6.31763 17.4489 6.12003 17.2725ZM10.875 22.5H6.37503V20.25H10.875V22.5Z" fill="#EFEFEF"/>
<path d="M17.3052 1.92447C16.957 1.57573 16.5436 1.29907 16.0884 1.11032C15.6332 0.921567 15.1453 0.824428 14.6525 0.824463C14.1598 0.824498 13.6719 0.921706 13.2167 1.11052C12.7616 1.29934 12.3481 1.57606 12 1.92485C11.652 1.57605 11.2386 1.29933 10.7834 1.11052C10.3283 0.921713 9.84041 0.824527 9.34767 0.824527C8.85493 0.824527 8.36703 0.921713 7.91189 1.11052C7.45676 1.29933 7.04334 1.57605 6.69529 1.92485C5.99342 2.62823 5.59924 3.58131 5.59924 4.57497C5.59924 5.56863 5.99342 6.52172 6.69529 7.2251L11.7353 12.2651C11.8056 12.3354 11.901 12.3749 12.0004 12.3749C12.0999 12.3749 12.1952 12.3354 12.2655 12.2651L17.3055 7.2251C18.0074 6.5216 18.4015 5.56843 18.4014 4.57471C18.4014 3.58098 18.0071 2.62787 17.3052 1.92447ZM12 11.4697L7.22517 6.69485C6.80597 6.27507 6.52063 5.74044 6.40524 5.15853C6.28984 4.57662 6.34956 3.97356 6.57685 3.42558C6.80414 2.8776 7.18879 2.40932 7.68218 2.07992C8.17558 1.75052 8.75555 1.5748 9.34879 1.57497C9.74287 1.57362 10.1333 1.65074 10.4972 1.80185C10.8612 1.95296 11.1914 2.17503 11.4687 2.4551L11.7349 2.72135C11.8052 2.79165 11.9006 2.83114 12 2.83114C12.0995 2.83114 12.1948 2.79165 12.2652 2.72135L12.5322 2.45435C12.8106 2.17544 13.1412 1.95417 13.5052 1.8032C13.8693 1.65223 14.2595 1.57452 14.6535 1.57452C15.0476 1.57452 15.4378 1.65223 15.8018 1.8032C16.1658 1.95417 16.4965 2.17544 16.7749 2.45435C17.3366 3.01684 17.6522 3.77928 17.6522 4.57422C17.6522 5.36916 17.3366 6.13161 16.7749 6.6941L12 11.4697Z" fill="#EFEFEF"/>
</g>
<defs>
<clipPath id="clip0_713_579">
<rect width="24" height="24" fill="white"/>
</clipPath>
</defs>
</svg>
