<svg width="41" height="41" viewBox="0 0 41 41" fill="none" xmlns="http://www.w3.org/2000/svg">
<g clip-path="url(#clip0_375_478)">
<path d="M7.59375 1H33.4375C37.3438 1 40.5312 4.15625 40.5312 8.09375V32.9375C40.5312 36.8438 37.375 40.0312 33.4375 40.0312H7.59375C3.65625 40 0.5 36.8438 0.5 32.9062V8.09375C0.5 4.15625 3.65625 1 7.59375 1Z" fill="#330000"/>
<path d="M19.8436 24.3438H13.6248L12.3748 28.25C12.3436 28.4063 12.2186 28.5 12.0623 28.4688H8.93732C8.74982 28.4688 8.71857 28.375 8.74982 28.1562L14.1248 12.7187C14.1873 12.5625 14.2186 12.375 14.2811 12.1562C14.3436 11.8125 14.3748 11.4375 14.3748 11.0625C14.3436 10.9688 14.4373 10.9063 14.4998 10.875H18.8123C18.9373 10.875 18.9998 10.9375 19.0311 11L25.1248 28.1562C25.1873 28.3438 25.1248 28.4375 24.9686 28.4375H21.4686C21.3436 28.4688 21.2498 28.375 21.1873 28.25L19.8436 24.3438ZM14.5936 20.9375H18.8123C18.7186 20.5938 18.5936 20.1562 18.4373 19.75C18.2811 19.3125 18.1248 18.8125 17.9998 18.3125C17.8436 17.7812 17.6873 17.2812 17.5311 16.7812C17.3748 16.25 17.2186 15.7813 17.0936 15.3125C16.9686 14.8438 16.8436 14.4063 16.7186 14H16.6873C16.5311 14.7188 16.3436 15.4375 16.1248 16.1562C15.8748 16.9687 15.6248 17.7812 15.3436 18.625C15.0936 19.4688 14.8436 20.25 14.5936 20.9375ZM28.8436 13.8438C28.2811 13.875 27.7498 13.6562 27.3748 13.25C26.9998 12.8438 26.7811 12.2813 26.8123 11.7188C26.7811 11.1563 26.9998 10.625 27.4061 10.25C27.8123 9.875 28.3436 9.65625 28.8748 9.65625C29.5311 9.65625 30.0311 9.84375 30.4061 10.25C30.7811 10.6563 30.9686 11.1875 30.9686 11.7188C30.9998 12.2813 30.7811 12.8438 30.3748 13.25C29.9686 13.6562 29.4061 13.875 28.8436 13.8438ZM26.9686 28.3125V15.4688C26.9686 15.3125 27.0311 15.25 27.1873 15.25H30.4998C30.6561 15.25 30.7186 15.3438 30.7186 15.4688V28.3125C30.7186 28.5 30.6561 28.5938 30.4998 28.5938H27.2186C27.0623 28.5625 26.9686 28.4688 26.9686 28.3125Z" fill="#FF9A00"/>
</g>
<defs>
<clipPath id="clip0_375_478">
<rect width="40" height="40" fill="white" transform="translate(0.5 0.5)"/>
</clipPath>
</defs>
</svg>
