<svg width="40" height="41" viewBox="0 0 40 41" fill="none" xmlns="http://www.w3.org/2000/svg">
<g clip-path="url(#clip0_375_684)">
<path d="M11.8427 18.9297C11.2458 18.2922 10.3161 18.3281 9.91034 19.1393L0.123619 38.7132C0.0343865 38.8916 -0.00776249 39.0899 0.00117552 39.2891C0.0101135 39.4884 0.0698417 39.682 0.174687 39.8517C0.279533 40.0214 0.426015 40.1614 0.60022 40.2586C0.774425 40.3557 0.97057 40.4067 1.17003 40.4067H14.7994C15.0178 40.4118 15.2329 40.3533 15.4187 40.2385C15.6045 40.1237 15.753 39.9574 15.8461 39.7598C18.7849 33.6832 17.0044 24.4447 11.8427 18.9297Z" fill="url(#paint0_linear_375_684)"/>
<path d="M19.0245 1.12682C13.5506 9.79947 13.9119 19.4048 17.5174 26.6159L24.0892 39.7598C24.1864 39.9541 24.3358 40.1176 24.5206 40.2318C24.7054 40.3461 24.9184 40.4066 25.1356 40.4067H38.7649C38.9643 40.4067 39.1605 40.3557 39.3347 40.2585C39.5089 40.1614 39.6553 40.0214 39.7602 39.8517C39.865 39.682 39.9248 39.4883 39.9337 39.2891C39.9426 39.0898 39.9005 38.8916 39.8113 38.7132C39.8113 38.7132 21.4759 2.03713 21.0147 1.11947C20.6022 0.297911 19.5547 0.286661 19.0245 1.12682Z" fill="#2681FF"/>
</g>
<defs>
<linearGradient id="paint0_linear_375_684" x1="1720.79" y1="364.84" x2="348.671" y2="1838.73" gradientUnits="userSpaceOnUse">
<stop stop-color="#0052CC"/>
<stop offset="0.923" stop-color="#2684FF"/>
</linearGradient>
<clipPath id="clip0_375_684">
<rect width="40" height="40" fill="white" transform="translate(0 0.5)"/>
</clipPath>
</defs>
</svg>
