<svg width="27" height="24" viewBox="0 0 27 24" fill="none" xmlns="http://www.w3.org/2000/svg">
<path d="M6 5L12.913 8.92462C15.4387 10.3585 16.5613 10.3585 19.087 8.92462L26 5" stroke="#181818" stroke-width="1.5" stroke-linejoin="round"/>
<path d="M14.5 19.5C14.0337 19.4939 13.5668 19.485 13.0988 19.4732C9.95033 19.3941 8.37608 19.3545 7.24496 18.2184C6.11383 17.0823 6.08114 15.5487 6.01577 12.4814C5.99475 11.4951 5.99474 10.5147 6.01576 9.52843C6.08114 6.46113 6.11382 4.92748 7.24495 3.79139C8.37608 2.6553 9.95033 2.61573 13.0988 2.53658C15.0393 2.4878 16.9607 2.48781 18.9012 2.53659C22.0497 2.61574 23.6239 2.65532 24.755 3.79141C25.8862 4.92749 25.9189 6.46114 25.9842 9.52844C25.9939 9.98251 25.9991 10.1965 25.9999 10.5" stroke="#181818" stroke-width="1.5" stroke-linecap="round" stroke-linejoin="round"/>
<path d="M23 17C23 17.8284 22.3284 18.5 21.5 18.5C20.6716 18.5 20 17.8284 20 17C20 16.1716 20.6716 15.5 21.5 15.5C22.3284 15.5 23 16.1716 23 17ZM23 17V17.5C23 18.3284 23.6716 19 24.5 19C25.3284 19 26 18.3284 26 17.5V17C26 14.5147 23.9853 12.5 21.5 12.5C19.0147 12.5 17 14.5147 17 17C17 19.4853 19.0147 21.5 21.5 21.5" stroke="#181818" stroke-width="1.5" stroke-linecap="round" stroke-linejoin="round"/>
</svg>
