<svg width="24" height="24" viewBox="0 0 24 24" fill="none" xmlns="http://www.w3.org/2000/svg">
<g clip-path="url(#clip0_713_606)">
<path d="M8.59426 7.65717C7.93346 8.08427 7.38775 8.66723 7.00515 9.35475C6.62254 10.0423 6.41476 10.8133 6.40009 11.6C6.40009 11.6525 6.41043 11.7045 6.43053 11.753C6.45064 11.8016 6.4801 11.8457 6.51725 11.8828C6.55439 11.92 6.59849 11.9494 6.64702 11.9695C6.69555 11.9896 6.74756 12 6.80009 12C6.85262 12 6.90464 11.9896 6.95317 11.9695C7.0017 11.9494 7.0458 11.92 7.08294 11.8828C7.12009 11.8457 7.14955 11.8016 7.16965 11.753C7.18975 11.7045 7.2001 11.6525 7.2001 11.6C7.21362 10.951 7.38522 10.3152 7.70001 9.74756C8.01481 9.17993 8.4633 8.69765 9.00662 8.34253C9.09582 8.28699 9.15961 8.19859 9.1842 8.09643C9.20879 7.99426 9.19222 7.88653 9.13805 7.79648C9.02527 7.60935 8.78302 7.5471 8.59426 7.65717Z" fill="#EFEFEF"/>
<path d="M20.8 9.99994C19.8501 10.0012 19.0316 10.6695 18.8405 11.5999H13.9596C13.8671 11.1619 13.6298 10.7678 13.286 10.4812L14.6375 8.00006H16.0404C16.2458 9.006 17.1795 9.69305 18.201 9.58978C19.2226 9.48666 20.0001 8.62664 20.0001 7.59994C20.0001 6.57328 19.2226 5.71322 18.201 5.61019C17.1795 5.50688 16.2459 6.19411 16.0404 7.20009H14.8001V4.56553L16.1656 3.19997H18.0405C18.2458 4.20591 19.1796 4.89309 20.2011 4.78988C21.2227 4.68675 22.0001 3.82673 22.0001 2.80003C22.0001 1.77319 21.2227 0.913312 20.2011 0.810047C19.1796 0.706969 18.2457 1.39397 18.0405 2.39995H16.1656C15.9536 2.40052 15.7503 2.48475 15.6 2.63433L15.2571 2.97745C14.9761 2.87343 14.69 2.78359 14.4 2.7083V0.800016C14.3994 0.358312 14.0416 0.000515625 13.6 0H10.4C9.95836 0.0005625 9.60056 0.358359 9.60005 0.799969V2.70797C8.7305 2.92975 7.8969 3.274 7.12425 3.73041L5.7825 2.38842C5.70841 2.3121 5.6197 2.25147 5.52168 2.21017C5.42365 2.16886 5.31831 2.14772 5.21194 2.148H5.21123C5.10581 2.14754 5.00138 2.16829 4.90414 2.20903C4.80691 2.24977 4.71887 2.30967 4.64527 2.38514L2.38861 4.64138C2.31278 4.71531 2.25244 4.80362 2.21113 4.90115C2.16982 4.99867 2.14836 5.10345 2.148 5.20936C2.1477 5.3153 2.16851 5.42024 2.20923 5.51804C2.24994 5.61585 2.30975 5.70456 2.38514 5.77898L3.73003 7.12406C3.27375 7.89685 2.92945 8.73047 2.70741 9.6H0.799969C0.358359 9.60061 0.0005625 9.95841 0 10.4001V13.6C0.0005625 14.0417 0.358359 14.3995 0.799969 14.4H2.70741C2.92945 15.2695 3.27375 16.1032 3.73003 16.8759L2.38861 18.2174C2.31275 18.2913 2.2524 18.3796 2.21109 18.4772C2.16977 18.5747 2.14833 18.6795 2.14801 18.7854C2.14768 18.8913 2.16849 18.9963 2.20921 19.094C2.24992 19.1918 2.30974 19.2805 2.38514 19.3549L4.6417 21.6112C4.71556 21.6877 4.80409 21.7484 4.90198 21.7898C4.99987 21.8311 5.1051 21.8523 5.21138 21.852H5.21208C5.42541 21.853 5.62973 21.7674 5.77898 21.6149L7.1243 20.2698C7.89693 20.7262 8.73052 21.0705 9.60005 21.2923V23.2001C9.60056 23.6417 9.95836 23.9995 10.4 24H13.6C14.0416 23.9995 14.3994 23.6417 14.4 23.2001V21.2917C14.69 21.2164 14.9761 21.1266 15.2571 21.0225L15.6 21.3657C15.7503 21.5153 15.9536 21.5995 16.1656 21.6H18.0405C18.2458 22.6061 19.1796 23.2931 20.2011 23.19C21.2227 23.0867 22.0001 22.2269 22.0001 21.2C22.0001 20.1733 21.2227 19.3133 20.2011 19.2102C19.1796 19.1069 18.2457 19.7941 18.0405 20.8001H16.1656L14.8 19.4345V16.8H16.0404C16.2458 17.8059 17.1795 18.4932 18.201 18.3899C19.2226 18.2868 20.0001 17.4268 20.0001 16.4001C20.0001 15.3734 19.2226 14.5133 18.201 14.4103C17.1795 14.307 16.2459 14.994 16.0404 16H14.6374L13.286 13.5189C13.6298 13.2322 13.8671 12.8381 13.9596 12.4001H18.8405C19.051 13.4312 20.0246 14.123 21.0677 13.982C22.1107 13.8412 22.8662 12.9159 22.7955 11.8658C22.7249 10.8157 21.8526 9.99998 20.8001 9.99998L20.8 9.99994ZM20.0001 1.59994C20.6627 1.59994 21.2 2.13722 21.2 2.80003C21.2 3.4627 20.6627 3.99994 20.0001 3.99994C19.3372 3.99994 18.8 3.46275 18.8 2.80003C18.8007 2.13759 19.3376 1.60064 20.0001 1.59994ZM20.0001 20.0001C20.6627 20.0001 21.2 20.5373 21.2 21.2C21.2 21.8628 20.6627 22.4 20.0001 22.4C19.3372 22.4 18.8 21.8628 18.8 21.2C18.8007 20.5375 19.3376 20.0008 20.0001 20.0001ZM12 13.2001C11.3373 13.2001 10.7999 12.6627 10.7999 12C10.7999 11.3373 11.3373 10.7999 12 10.7999C12.6627 10.7999 13.2001 11.3373 13.2001 12C13.1993 12.6625 12.6624 13.1993 12 13.2001ZM18 6.40008C18.6627 6.40008 19.2001 6.93731 19.2001 7.59998C19.2001 8.2628 18.6627 8.80003 18 8.80003C17.3373 8.80003 16.7999 8.26284 16.7999 7.59998C16.8007 6.9375 17.3376 6.40083 18 6.40008ZM13.9132 20.5856C13.8244 20.6053 13.7449 20.6547 13.6879 20.7257C13.631 20.7967 13.5999 20.885 13.6 20.976V23.2H10.4V20.976C10.4 20.8848 10.3689 20.7963 10.3117 20.7252C10.2545 20.6542 10.1747 20.6048 10.0856 20.5853C9.08908 20.3669 8.13882 19.9746 7.27842 19.4264C7.20161 19.3778 7.11057 19.3568 7.02025 19.3668C6.92992 19.3768 6.84567 19.4172 6.78131 19.4813L5.211 21.0493L2.95092 18.7868L4.51889 17.2188C4.5832 17.1545 4.62366 17.0702 4.63361 16.9798C4.64355 16.8894 4.62238 16.7983 4.57359 16.7216C4.02556 15.8611 3.63324 14.911 3.41456 13.9146C3.39508 13.8255 3.34573 13.7457 3.2747 13.6885C3.20366 13.6313 3.11521 13.6 3.024 13.6H0.799969V10.4H3.024C3.11519 10.4 3.20364 10.3688 3.27468 10.3116C3.34572 10.2545 3.39507 10.1747 3.41456 10.0856C3.6332 9.08913 4.02553 8.1389 4.57359 7.27842C4.6224 7.2017 4.64358 7.11062 4.63362 7.02024C4.62367 6.92986 4.58318 6.84557 4.51884 6.78131L2.95092 5.21081L5.21344 2.95078L6.78136 4.51875C6.84565 4.58311 6.92996 4.62362 7.02038 4.6336C7.1108 4.64358 7.20193 4.62243 7.2787 4.57364C8.139 4.02548 9.0892 3.63326 10.0857 3.41498C10.1748 3.39542 10.2545 3.34599 10.3117 3.27489C10.3689 3.20379 10.4001 3.11529 10.4001 3.02405V0.799969H13.6V3.024C13.6 3.2115 13.7302 3.37392 13.9133 3.41437C14.1542 3.46841 14.3928 3.53231 14.6285 3.60591L14.2345 3.99994C14.1599 4.07402 14.1008 4.16216 14.0606 4.25925C14.0204 4.35633 13.9998 4.46044 14.0001 4.56553V5.08392C11.0587 4.23248 7.90069 5.33442 6.12769 7.83108C4.3545 10.3275 4.3545 13.6725 6.12769 16.169C7.90069 18.6656 11.0587 19.7675 14.0001 18.9161V19.4345C13.9999 19.5396 14.0204 19.6437 14.0607 19.7407C14.1009 19.8378 14.16 19.926 14.2345 20.0001L14.6285 20.3939C14.3929 20.4677 14.1542 20.5317 13.9132 20.5856ZM18 15.2C18.6627 15.2 19.2001 15.7372 19.2001 16.4C19.2001 17.0627 18.6627 17.5999 18 17.5999C17.3373 17.5999 16.7999 17.0627 16.7999 16.4C16.8007 15.7375 17.3376 15.2007 18 15.2ZM14.0001 16.5018V18.0747C11.3593 18.9503 8.45522 18.0198 6.81553 15.7722C5.17566 13.5247 5.17566 10.4753 6.81553 8.22783C8.45522 5.98022 11.3593 5.0497 14.0001 5.92533V7.49817L12.5843 10.0972C12.3955 10.0356 12.1985 10.0029 12 9.99994C10.8955 9.99994 9.99994 10.8955 9.99994 12C9.99994 13.1045 10.8955 14.0001 12 14.0001C12.1985 13.9971 12.3955 13.9644 12.5843 13.9028L14.0001 16.5018ZM20.8 13.2001C20.1372 13.2001 19.6 12.6627 19.6 12C19.6 11.3373 20.1372 10.7999 20.8 10.7999C21.4627 10.7999 21.9999 11.3373 21.9999 12C21.9992 12.6625 21.4625 13.1993 20.8 13.2001Z" fill="#EFEFEF"/>
</g>
<defs>
<clipPath id="clip0_713_606">
<rect width="24" height="24" fill="white"/>
</clipPath>
</defs>
</svg>
