<svg width="40" height="41" viewBox="0 0 40 41" fill="none" xmlns="http://www.w3.org/2000/svg">
<path fill-rule="evenodd" clip-rule="evenodd" d="M27.3133 7.25016C27.6853 7.22134 28.0562 7.31817 28.3667 7.52516L30.6333 9.03682L12.3033 10.4452L10.4083 8.55016L27.3133 7.25016ZM8.33333 11.1902V26.0568C8.33333 26.4174 8.4503 26.7683 8.66667 27.0568L10 28.8335V12.8568L8.33333 11.1902ZM31.6667 30.6235L13.3333 32.0335V13.7102L31.6667 12.3002V30.6235ZM35 30.6235C34.9999 31.4634 34.6828 32.2723 34.1121 32.8884C33.5414 33.5046 32.7591 33.8826 31.9217 33.9468L12.7067 35.4252C12.1477 35.4681 11.5869 35.3693 11.0762 35.138C10.5655 34.9067 10.1214 34.5503 9.785 34.1018L6 29.0552C5.35089 28.1897 5 27.137 5 26.0552V8.71016C5.00006 7.87028 5.31716 7.06139 5.88789 6.44523C6.45863 5.82907 7.24092 5.45107 8.07833 5.38682L27.0583 3.92682C28.1732 3.84112 29.2846 4.13159 30.215 4.75182L33.515 6.95182C33.9717 7.25613 34.3462 7.66848 34.6052 8.15229C34.8643 8.63609 34.9999 9.17636 35 9.72516V30.6235ZM28.3333 16.3335C28.3333 15.8915 28.1577 15.4675 27.8452 15.155C27.5326 14.8424 27.1087 14.6668 26.6667 14.6668C26.2246 14.6668 25.8007 14.8424 25.4882 15.155C25.1756 15.4675 25 15.8915 25 16.3335V23.4668L20.5867 16.2935C20.4375 16.051 20.2286 15.8507 19.98 15.7118C19.7314 15.573 19.4514 15.5001 19.1667 15.5002H18.3333C17.8913 15.5002 17.4674 15.6758 17.1548 15.9883C16.8423 16.3009 16.6667 16.7248 16.6667 17.1668V28.8335C16.6667 29.2755 16.8423 29.6994 17.1548 30.012C17.4674 30.3246 17.8913 30.5002 18.3333 30.5002C18.7754 30.5002 19.1993 30.3246 19.5118 30.012C19.8244 29.6994 20 29.2755 20 28.8335V21.7002L24.4133 28.8735C24.5625 29.116 24.7714 29.3163 25.02 29.4551C25.2686 29.594 25.5486 29.6669 25.8333 29.6668H26.6667C27.1087 29.6668 27.5326 29.4912 27.8452 29.1787C28.1577 28.8661 28.3333 28.4422 28.3333 28.0002V16.3335Z" fill="black"/>
</svg>
