<svg width="41" height="41" viewBox="0 0 41 41" fill="none" xmlns="http://www.w3.org/2000/svg">
<g clip-path="url(#clip0_375_464)">
<path d="M31.125 0.5H9.875C4.69733 0.5 0.5 4.69733 0.5 9.875V31.125C0.5 36.3027 4.69733 40.5 9.875 40.5H31.125C36.3027 40.5 40.5 36.3027 40.5 31.125V9.875C40.5 4.69733 36.3027 0.5 31.125 0.5Z" fill="#001E36"/>
<path d="M9.5 28.3185V11.1685C9.5 11.0518 9.55 10.9853 9.66672 10.9853C9.95 10.9853 10.2167 10.9853 10.6 10.9685C11 10.9518 11.4167 10.9518 11.8667 10.9353C12.3167 10.9185 12.8 10.9185 13.3167 10.9018C13.8333 10.8853 14.3333 10.8853 14.8333 10.8853C16.2 10.8853 17.3333 11.0518 18.2667 11.4018C19.1033 11.686 19.8662 12.1529 20.5 12.7685C21.0369 13.3074 21.4519 13.9554 21.7167 14.6685C21.9667 15.3685 22.1 16.0853 22.1 16.8353C22.1 18.2686 21.7667 19.4519 21.1 20.3853C20.4333 21.3185 19.5 22.0185 18.4167 22.4185C17.2833 22.8353 16.0333 22.9853 14.6667 22.9853C14.2667 22.9853 14 22.9853 13.8333 22.9685C13.6666 22.9518 13.4333 22.9518 13.1167 22.9518V28.3018C13.1333 28.4185 13.05 28.5185 12.9333 28.5353H9.7C9.56672 28.5353 9.5 28.4685 9.5 28.3185ZM13.1333 14.2018V19.8018C13.3667 19.8185 13.5833 19.8353 13.7833 19.8353H14.6667C15.3167 19.8353 15.9667 19.7353 16.5833 19.5353C17.1167 19.3853 17.5833 19.0685 17.95 18.6518C18.3 18.2353 18.4667 17.6685 18.4667 16.9353C18.4824 16.4144 18.3494 15.8999 18.0833 15.4518C17.8 15.0185 17.4 14.6853 16.9167 14.5018C16.3 14.2518 15.6333 14.1518 14.95 14.1685C14.5167 14.1685 14.1333 14.1685 13.8167 14.1853C13.4833 14.1685 13.25 14.1853 13.1333 14.2018ZM32.5 18.7853C32 18.5185 31.4667 18.3353 30.9 18.2185C30.2833 18.0853 29.6667 18.0018 29.0333 18.0018C28.7 17.9853 28.35 18.0353 28.0333 18.1185C27.8167 18.1685 27.6333 18.2853 27.5167 18.4518C27.4333 18.5853 27.3833 18.7518 27.3833 18.9018C27.3833 19.0518 27.45 19.2018 27.55 19.3353C27.7 19.5185 27.9 19.6685 28.1167 19.7853C28.5032 19.9853 28.8979 20.1688 29.3 20.3353C30.2 20.6353 31.0667 21.0518 31.8667 21.5518C32.4167 21.9018 32.8667 22.3685 33.1833 22.9353C33.45 23.4685 33.5833 24.0518 33.5667 24.6518C33.5833 25.4353 33.35 26.2185 32.9167 26.8685C32.4518 27.5338 31.8031 28.0493 31.05 28.3518C30.2333 28.7018 29.2333 28.8853 28.0333 28.8853C27.2667 28.8853 26.5167 28.8185 25.7667 28.6685C25.1789 28.567 24.6072 28.3877 24.0667 28.1353C23.95 28.0685 23.8667 27.9518 23.8833 27.8185V24.9185C23.8833 24.8685 23.9 24.8018 23.95 24.7685C24 24.7353 24.05 24.7518 24.1 24.7853C24.75 25.1685 25.4333 25.4353 26.1667 25.6018C26.8 25.7685 27.4667 25.8518 28.1333 25.8518C28.7667 25.8518 29.2167 25.7685 29.5167 25.6185C29.7833 25.5018 29.9667 25.2185 29.9667 24.9185C29.9667 24.6853 29.8333 24.4685 29.5667 24.2518C29.3 24.0353 28.75 23.7853 27.9333 23.4685C27.0956 23.1733 26.3 22.7698 25.5667 22.2685C25.0444 21.8964 24.6116 21.4124 24.3 20.8518C24.0333 20.3185 23.9 19.7353 23.9167 19.1518C23.9167 18.4353 24.1167 17.7518 24.4833 17.1353C24.9 16.4685 25.5167 15.9353 26.2333 15.6018C27.0167 15.2018 28 15.0185 29.1833 15.0185C29.8667 15.0185 30.5667 15.0685 31.25 15.1685C31.75 15.2353 32.2333 15.3685 32.6833 15.5518C32.75 15.5685 32.8167 15.6353 32.85 15.7018C32.8667 15.7685 32.8833 15.8353 32.8833 15.9018V18.6185C32.8833 18.6853 32.85 18.7518 32.8 18.7853C32.65 18.8185 32.5667 18.8185 32.5 18.7853Z" fill="#31A8FF"/>
</g>
<defs>
<clipPath id="clip0_375_464">
<rect width="40" height="40" fill="white" transform="translate(0.5 0.5)"/>
</clipPath>
</defs>
</svg>
