<svg width="40" height="41" viewBox="0 0 40 41" fill="none" xmlns="http://www.w3.org/2000/svg">
<path d="M20 24.0625C21.9675 24.0625 23.5625 22.4675 23.5625 20.5C23.5625 18.5325 21.9675 16.9375 20 16.9375C18.0325 16.9375 16.4375 18.5325 16.4375 20.5C16.4375 22.4675 18.0325 24.0625 20 24.0625Z" fill="#61DAFB"/>
<path d="M33.5312 14.625C32.8438 14.375 32.125 14.125 31.375 13.9063C31.5625 13.1563 31.7188 12.4062 31.8438 11.6875C32.5 7.5625 31.7812 4.65625 29.7812 3.53125C29.1875 3.1875 28.5312 3.03125 27.7812 3.03125C25.5938 3.03125 22.8125 4.65625 20 7.375C17.1875 4.65625 14.4062 3.03125 12.2187 3.03125C11.4687 3.03125 10.8125 3.1875 10.2188 3.53125C8.21875 4.6875 7.5 7.59375 8.15625 11.6875C8.28125 12.4062 8.4375 13.1563 8.625 13.9063C7.875 14.125 7.15625 14.3438 6.46875 14.625C2.5625 16.125 0.4375 18.1875 0.4375 20.5C0.4375 22.8125 2.59375 24.875 6.46875 26.375C7.15625 26.625 7.875 26.875 8.625 27.0938C8.4375 27.8438 8.28125 28.5938 8.15625 29.3125C7.5 33.4375 8.21875 36.3438 10.2188 37.4688C10.8125 37.8125 11.4687 37.9688 12.2187 37.9688C14.4375 37.9688 17.2188 36.3438 20 33.625C22.8125 36.3438 25.5938 37.9688 27.7812 37.9688C28.5312 37.9688 29.1875 37.8125 29.7812 37.4688C31.7812 36.3125 32.5 33.4062 31.8438 29.3125C31.7188 28.5938 31.5625 27.8438 31.375 27.0938C32.125 26.875 32.8438 26.6563 33.5312 26.375C37.4375 24.875 39.5625 22.8125 39.5625 20.5C39.5625 18.1875 37.4375 16.125 33.5312 14.625ZM28.9062 5.09375C30.1875 5.84375 30.625 8.15625 30.0938 11.4375C30 12.0938 29.8438 12.7812 29.6562 13.5C28.0312 13.125 26.3125 12.875 24.5 12.7187C23.4375 11.2187 22.3438 9.875 21.25 8.65625C23.5625 6.375 25.9062 4.8125 27.8125 4.8125C28.2188 4.8125 28.5938 4.90625 28.9062 5.09375ZM25.4062 23.625C24.8438 24.625 24.1875 25.625 23.5 26.625C22.3437 26.7188 21.1875 26.75 20 26.75C18.7812 26.75 17.625 26.7188 16.5 26.625C15.8125 25.625 15.1875 24.625 14.625 23.625C14.0312 22.5938 13.4688 21.5312 12.9688 20.5C13.4688 19.4688 14.0312 18.4062 14.625 17.375C15.1875 16.375 15.8438 15.375 16.5312 14.375C17.6875 14.2813 18.8438 14.25 20.0312 14.25C21.25 14.25 22.4062 14.2813 23.5312 14.375C24.2188 15.375 24.8438 16.375 25.4062 17.375C26 18.4062 26.5625 19.4688 27.0625 20.5C26.5312 21.5312 26 22.5625 25.4062 23.625ZM28 22.5938C28.4688 23.6875 28.8438 24.75 29.1875 25.8125C28.125 26.0625 27 26.25 25.8125 26.4062C26.1875 25.8125 26.5937 25.1875 26.9375 24.5312C27.3125 23.875 27.6562 23.2188 28 22.5938ZM20 31.0625C19.25 30.25 18.5312 29.375 17.8438 28.4688C18.5625 28.5 19.2812 28.5312 20 28.5312C20.7188 28.5312 21.4375 28.5 22.1562 28.4688C21.4688 29.375 20.75 30.25 20 31.0625ZM14.1875 26.375C13 26.2188 11.875 26.0313 10.8125 25.7812C11.1562 24.75 11.5312 23.6562 12 22.5625C12.3438 23.1875 12.6875 23.8438 13.0625 24.4688C13.4375 25.1562 13.8125 25.75 14.1875 26.375ZM12 18.4062C11.5312 17.3125 11.1562 16.25 10.8125 15.1875C11.875 14.9375 13 14.75 14.1875 14.5938C13.8125 15.1875 13.4062 15.8125 13.0625 16.4688C12.6875 17.125 12.3438 17.7812 12 18.4062ZM20 9.9375C20.75 10.75 21.4688 11.625 22.1562 12.5312C21.4375 12.5 20.7188 12.4688 20 12.4688C19.2812 12.4688 18.5625 12.5 17.8438 12.5312C18.5312 11.625 19.25 10.75 20 9.9375ZM26.9375 16.5L25.8125 14.625C27 14.7812 28.125 14.9688 29.1875 15.2188C28.8438 16.25 28.4688 17.3438 28 18.4375C27.6562 17.7813 27.3125 17.125 26.9375 16.5ZM9.90625 11.4375C9.375 8.15625 9.8125 5.84375 11.0938 5.09375C11.4062 4.90625 11.7812 4.8125 12.1875 4.8125C14.0625 4.8125 16.4062 6.34375 18.75 8.65625C17.6562 9.84375 16.5625 11.2187 15.5 12.7187C13.6875 12.875 11.9688 13.1562 10.3438 13.5C10.1562 12.7812 10.0312 12.0938 9.90625 11.4375ZM2.1875 20.5C2.1875 19.0312 3.96875 17.4688 7.09375 16.3125C7.71875 16.0625 8.40625 15.8438 9.09375 15.6562C9.59375 17.2188 10.2187 18.875 10.9687 20.5312C10.2187 22.1875 9.5625 23.8125 9.09375 25.375C4.78125 24.125 2.1875 22.25 2.1875 20.5ZM11.0938 35.9062C9.8125 35.1562 9.375 32.8438 9.90625 29.5625C10 28.9062 10.1562 28.2188 10.3438 27.5C11.9688 27.875 13.6875 28.125 15.5 28.2812C16.5625 29.7813 17.6562 31.125 18.75 32.3438C16.4375 34.625 14.0937 36.1875 12.1875 36.1875C11.7812 36.1875 11.4062 36.0938 11.0938 35.9062ZM30.0938 29.5625C30.625 32.8438 30.1875 35.1562 28.9062 35.9062C28.5938 36.0938 28.2188 36.1875 27.8125 36.1875C25.9375 36.1875 23.5938 34.6563 21.25 32.3438C22.3438 31.1563 23.4375 29.7813 24.5 28.2812C26.3125 28.125 28.0312 27.8438 29.6562 27.5C29.8438 28.2188 29.9688 28.9062 30.0938 29.5625ZM32.9062 24.6875C32.2812 24.9375 31.5938 25.1562 30.9062 25.3438C30.4062 23.7812 29.7812 22.125 29.0312 20.4688C29.7812 18.8125 30.4375 17.1875 30.9062 15.625C35.2188 16.875 37.8125 18.75 37.8125 20.5C37.8125 21.9688 36 23.5312 32.9062 24.6875Z" fill="#61DAFB"/>
</svg>
