<svg width="24" height="24" viewBox="0 0 24 24" fill="none" xmlns="http://www.w3.org/2000/svg">
<g clip-path="url(#clip0_713_615)">
<path d="M15.7773 16.465H8.21945C8.06527 16.465 7.93909 16.3388 7.93909 16.1833V10.7102H8.50116V15.9029H15.4957V10.7102H16.0577V16.1833C16.0577 16.3388 15.9315 16.465 15.7773 16.465H15.7773Z" fill="#EFEFEF"/>
<path d="M13.5556 16.1833H12.9936V13.2122H11.0031V16.1833H10.441V12.9305C10.441 12.7764 10.5673 12.6501 10.7227 12.6501H13.2752C13.4294 12.6501 13.5556 12.7764 13.5556 12.9305V16.1833H13.5556Z" fill="#EFEFEF"/>
<path d="M14.3848 9.71759C14.4328 9.71755 14.48 9.72988 14.5219 9.75338C14.5638 9.77689 14.599 9.81078 14.624 9.8518C15.0624 10.576 15.9115 10.6517 16.4244 10.0033L15.0292 8.09919H8.96883L7.57232 10.0033C8.0879 10.6543 8.93831 10.5693 9.37279 9.85311C9.48173 9.67241 9.74353 9.67241 9.85247 9.8518C10.3375 10.6477 11.2822 10.6384 11.7592 9.8518C11.8682 9.67241 12.1299 9.67241 12.2389 9.85311C12.7093 10.6291 13.6553 10.6557 14.1442 9.8518C14.1947 9.76808 14.2864 9.71759 14.3848 9.71759ZM15.578 11.0078C15.1315 11.0078 14.7063 10.8098 14.3848 10.463C13.7098 11.1885 12.6707 11.1885 11.9984 10.463C11.3247 11.1885 10.2869 11.1885 9.61326 10.463C8.83462 11.3041 7.60022 11.1486 6.98765 10.1441C6.95846 10.0967 6.94412 10.0416 6.94648 9.98594C6.94884 9.93029 6.9678 9.87662 7.00092 9.83183L8.5994 7.65139C8.62567 7.61587 8.65992 7.58702 8.69938 7.56717C8.73885 7.54732 8.78243 7.53702 8.82661 7.53711H15.1727C15.2617 7.53711 15.3454 7.57963 15.3986 7.6527L16.9957 9.83183C17.0288 9.87661 17.0478 9.93028 17.0502 9.98593C17.0526 10.0416 17.0382 10.0967 17.009 10.1441C16.6808 10.6849 16.1453 11.0078 15.578 11.0078Z" fill="#EFEFEF"/>
<path d="M8.34961 2.97021L8.13834 2.44934C10.6085 1.45146 13.3895 1.45015 15.8583 2.44934L15.6471 2.97021C13.3138 2.02549 10.6842 2.02681 8.34961 2.97021ZM9.78731 4.41856L9.62915 3.87907C11.1652 3.42996 12.8327 3.42996 14.3688 3.87907L14.2107 4.41856C12.7783 4.00001 11.2197 4.00001 9.78731 4.41856ZM3.87576 14.3695C3.42933 12.8295 3.42933 11.1726 3.87576 9.63124L4.41656 9.78804C3.99801 11.2271 3.99801 12.7751 4.41656 14.2128L3.87576 14.3695ZM20.1209 14.3695L19.5801 14.2127C20 12.7677 20 11.233 19.5801 9.78799L20.1209 9.6312C20.57 11.1778 20.57 12.8242 20.1209 14.3695V14.3695ZM2.44603 15.8617C1.44947 13.3929 1.44947 10.6091 2.44603 8.1417L2.96822 8.35296C2.02481 10.6822 2.02481 13.3198 2.96822 15.6504L2.44603 15.8617ZM21.5506 15.8617L21.0285 15.6504C21.9719 13.3212 21.9719 10.6823 21.0285 8.35296L21.5506 8.1417C22.5472 10.6025 22.5472 13.3995 21.5506 15.8617ZM11.9997 20.4591C11.1931 20.4591 10.3959 20.3462 9.63051 20.1243L9.78731 19.5835C11.2237 20.0007 12.7743 20.0021 14.2107 19.5835L14.3688 20.1243C13.5987 20.3468 12.8012 20.4595 11.9997 20.4591ZM11.9997 22.3008C10.6656 22.3008 9.36745 22.0483 8.13834 21.5514L8.34961 21.0305C10.6842 21.9752 13.3125 21.9752 15.6471 21.0305L15.8583 21.5514C14.6306 22.0483 13.3324 22.3008 11.9997 22.3008Z" fill="#EFEFEF"/>
<path d="M19.8512 9.99268C19.8142 9.99271 19.7776 9.98545 19.7434 9.97132C19.7092 9.95719 19.6781 9.93646 19.6519 9.91032L14.0898 4.34822C14.0636 4.32221 14.0428 4.29126 14.0286 4.25716C14.0144 4.22307 14.0071 4.1865 14.0071 4.14957C14.0071 4.11263 14.0144 4.07607 14.0286 4.04197C14.0428 4.00788 14.0636 3.97693 14.0898 3.95091L15.3933 2.64872C15.396 2.64605 15.3973 2.64343 15.4 2.64075C16.4404 1.67475 18.0667 1.80497 19.6453 2.98224L19.3091 3.43271C18.2554 2.6461 16.7765 2.13319 15.7866 3.05002L14.6864 4.14886L19.8513 9.31369L20.9501 8.21349C21.8657 7.22358 21.3541 5.74468 20.5675 4.68966L21.0179 4.35347C22.1938 5.93335 22.3267 7.55972 21.3581 8.5988C21.3567 8.60147 21.3541 8.6041 21.3528 8.60677L20.0493 9.91027C20.0234 9.93651 19.9926 9.95731 19.9586 9.97145C19.9246 9.9856 19.8881 9.9928 19.8513 9.99263L19.8512 9.99268Z" fill="#EFEFEF"/>
<path d="M21.451 0.751211C20.9713 0.751211 20.5196 0.937211 20.1794 1.27738C19.4779 1.97896 19.4779 3.11901 20.1794 3.82059C20.881 4.52216 22.0184 4.52348 22.7226 3.82059C23.4242 3.11901 23.4242 1.97896 22.7226 1.27738C22.3838 0.937211 21.9307 0.751211 21.4511 0.751211H21.451ZM21.451 4.90748C20.8477 4.90748 20.2419 4.6776 19.7821 4.21785C18.8626 3.29704 18.8626 1.79952 19.7821 0.88007C20.7042 -0.0420547 22.1964 -0.0420547 23.1199 0.88007C24.0434 1.8022 24.0434 3.29437 23.1199 4.21785C22.6588 4.6776 22.0556 4.90748 21.451 4.90748ZM17.0808 22.0044C16.4417 22.0044 15.8637 21.7918 15.4013 21.3613C15.3973 21.36 15.396 21.3573 15.3933 21.3546L14.0898 20.0511C14.0636 20.0251 14.0428 19.9942 14.0286 19.9601C14.0144 19.926 14.0071 19.8894 14.0071 19.8525C14.0071 19.8156 14.0144 19.779 14.0286 19.7449C14.0428 19.7108 14.0636 19.6799 14.0898 19.6538L19.6519 14.0931C19.7622 13.9828 19.9402 13.9828 20.0492 14.0931L21.3527 15.3952C21.354 15.3979 21.3567 15.4005 21.358 15.4019C22.324 16.4423 22.1938 18.07 21.0178 19.6485L20.5674 19.3124C21.3527 18.2573 21.8656 16.7784 20.9501 15.7885L19.8512 14.6883L14.6864 19.8518L15.7866 20.9533C16.7765 21.8675 18.2554 21.3559 19.3091 20.5706L19.6452 21.021C18.7696 21.6734 17.878 22.0043 17.0808 22.0043V22.0044Z" fill="#EFEFEF"/>
<path d="M21.451 19.6553C20.9713 19.6553 20.5195 19.8413 20.1794 20.1814C19.4778 20.883 19.4778 22.0231 20.1794 22.7246C20.8823 23.4262 22.0183 23.4275 22.7226 22.7246C23.4242 22.0231 23.4242 20.883 22.7226 20.1814C22.3837 19.8413 21.9306 19.6553 21.451 19.6553H21.451ZM21.451 23.8116C20.8477 23.8116 20.2418 23.5817 19.7821 23.122C18.8626 22.2011 18.8626 20.7036 19.7821 19.7842C20.7042 18.8607 22.1964 18.862 23.1199 19.7842C24.0433 20.7063 24.0433 22.1998 23.1199 23.122C22.6588 23.5817 22.0555 23.8116 21.451 23.8116ZM6.91587 22.0031C6.11862 22.0045 5.22837 21.6736 4.35143 21.0212L4.68757 20.5708C5.74258 21.3547 7.22149 21.8676 8.21004 20.9535L9.31024 19.852L4.14808 14.6885L3.04652 15.7887C2.13237 16.7786 2.64391 18.2575 3.42921 19.3125L2.97874 19.6487C1.80283 18.0688 1.67262 16.4411 2.63862 15.4021L2.64527 15.3954L3.94877 14.0932C3.97479 14.067 4.00574 14.0462 4.03983 14.032C4.07393 14.0178 4.11049 14.0105 4.14743 14.0105C4.18436 14.0105 4.22093 14.0178 4.25502 14.032C4.28912 14.0462 4.32007 14.067 4.34608 14.0932L9.90687 19.654C10.0172 19.7629 10.0172 19.941 9.90687 20.0513L8.60337 21.3548C8.60069 21.3575 8.59807 21.3602 8.5954 21.3615C8.13433 21.792 7.55501 22.0032 6.91587 22.0032V22.0031Z" fill="#EFEFEF"/>
<path d="M1.27544 22.7246C1.97701 23.4262 3.11842 23.4248 3.81864 22.7246C4.52158 22.0217 4.52158 20.8843 3.81864 20.1814C3.11575 19.4785 1.97833 19.4785 1.27544 20.1814C0.573858 20.883 0.575217 22.0231 1.27544 22.7246ZM2.54706 23.8115C1.94247 23.8115 1.33792 23.5816 0.87817 23.1219C-0.0426421 22.2011 -0.0426421 20.7036 0.87817 19.7841C1.80034 18.8619 3.29383 18.8619 4.21595 19.7841C5.13944 20.7062 5.13808 22.1998 4.21595 23.1219C3.7562 23.5816 3.15161 23.8115 2.54706 23.8115ZM4.14817 9.99263C4.07242 9.99263 4.0007 9.96338 3.94886 9.91027L2.64536 8.60677C2.64277 8.60444 2.64053 8.60176 2.6387 8.5988C1.6727 7.56104 1.80292 5.93466 2.97883 4.35347L3.4293 4.68966C2.644 5.74468 2.13109 7.2249 3.04661 8.21349L4.14817 9.31369L9.31033 4.14886L8.21012 3.05002C7.22022 2.1345 5.74267 2.64741 4.68765 3.43271L4.35151 2.98224C5.93139 1.80497 7.55776 1.67475 8.59684 2.64075C8.59816 2.64343 8.60083 2.64605 8.6035 2.64872L9.907 3.95091C9.93321 3.97693 9.95402 4.00788 9.96822 4.04197C9.98241 4.07607 9.98972 4.11263 9.98972 4.14957C9.98972 4.1865 9.98241 4.22307 9.96822 4.25716C9.95402 4.29126 9.93321 4.32221 9.907 4.34822L4.34622 9.91032C4.32038 9.93655 4.28956 9.95735 4.25556 9.9715C4.22157 9.98564 4.18508 9.99284 4.14826 9.99268L4.14817 9.99263Z" fill="#EFEFEF"/>
<path d="M1.27542 1.27762C0.573838 1.97919 0.573838 3.11924 1.27542 3.82082C1.97699 4.5224 3.1184 4.5224 3.81862 3.82082C4.52156 3.11793 4.52156 1.98051 3.81862 1.27762C3.11573 0.574725 1.97831 0.574725 1.27542 1.27762ZM2.54704 4.90771C1.94245 4.90771 1.3379 4.67783 0.87815 4.21808C-0.042709 3.29732 -0.0427089 1.7998 0.878103 0.88035C1.80028 -0.0418223 3.29376 -0.0418223 4.21589 0.88035C5.13801 1.80252 5.13801 3.29601 4.21589 4.21813C3.75613 4.67788 3.15154 4.90776 2.54699 4.90776L2.54704 4.90771Z" fill="#EFEFEF"/>
</g>
<defs>
<clipPath id="clip0_713_615">
<rect width="24" height="24" fill="white"/>
</clipPath>
</defs>
</svg>
