<svg width="40" height="40" viewBox="0 0 40 40" fill="none" xmlns="http://www.w3.org/2000/svg">
<path d="M13.333 28.3334H26.6663" stroke="#0E4F53" stroke-width="2.5" stroke-linecap="round" stroke-linejoin="round"/>
<path d="M13.333 21.6666H19.9997" stroke="#0E4F53" stroke-width="2.5" stroke-linecap="round" stroke-linejoin="round"/>
<path d="M21.667 4.16665V4.99998C21.667 9.71403 21.667 12.071 23.1315 13.5355C24.596 15 26.953 15 31.667 15H32.5003M33.3337 17.7615V23.3333C33.3337 29.6186 33.3337 32.7615 31.381 34.714C29.4285 36.6666 26.2857 36.6666 20.0003 36.6666C13.7149 36.6666 10.5722 36.6666 8.61961 34.714C6.66699 32.7615 6.66699 29.6186 6.66699 23.3333V15.7597C6.66699 10.3513 6.66699 7.64716 8.14378 5.81553C8.44213 5.4455 8.77918 5.10845 9.14921 4.8101C10.9808 3.33331 13.685 3.33331 19.0933 3.33331C20.2693 3.33331 20.8572 3.33331 21.3957 3.52333C21.5077 3.56285 21.6173 3.60831 21.7245 3.65956C22.2397 3.9059 22.6553 4.32165 23.4868 5.15311L31.381 13.0474C32.3445 14.0108 32.8262 14.4925 33.08 15.1051C33.3337 15.7176 33.3337 16.3989 33.3337 17.7615Z" stroke="#0E4F53" stroke-width="2.5" stroke-linecap="round" stroke-linejoin="round"/>
</svg>
