<svg width="24" height="24" viewBox="0 0 24 24" fill="none" xmlns="http://www.w3.org/2000/svg">
<g clip-path="url(#clip0_713_553)">
<path d="M23.9716 1.79189C23.9197 0.838551 23.1615 0.0804415 22.2081 0.0284102C20.2845 -0.0766835 16.5202 0.025551 12.9208 1.88729C11.0858 2.83641 9.14522 4.44558 7.59652 6.30221C7.57744 6.32508 7.55888 6.3481 7.53994 6.37102L4.02525 6.64252C3.44672 6.68724 2.93142 6.99047 2.61145 7.47441L0.213611 11.1012C-0.0290606 11.4683 -0.0676387 11.9276 0.110346 12.3299C0.288377 12.7323 0.654189 13.0127 1.08896 13.0801L4.0501 13.5387C4.03964 13.5962 4.02914 13.6538 4.01953 13.7113C3.92095 14.301 4.11633 14.9073 4.54224 15.3331L8.66686 19.4578C9.01997 19.8109 9.49711 20.0056 9.98602 20.0056C10.0874 20.0056 10.1887 19.9972 10.2887 19.9805C10.3463 19.9709 10.4038 19.9604 10.4614 19.9499L10.92 22.9111C10.9874 23.3459 11.2678 23.7117 11.67 23.8897C11.8341 23.9625 12.0115 24.0002 12.1909 24.0003C12.4428 24.0001 12.689 23.9257 12.8988 23.7865L16.5256 21.3886C17.0096 21.0686 17.3128 20.5533 17.3574 19.9748L17.6289 16.4602C17.6518 16.4412 17.6749 16.4227 17.6978 16.4036C19.5544 14.8549 21.1636 12.9143 22.1127 11.0793C23.9745 7.47971 24.0766 3.71541 23.9716 1.79189ZM15.75 20.2155L12.2808 22.5092L11.8338 19.6234C13.3 19.1923 14.7505 18.5018 16.1323 17.5768L15.9555 19.8664C15.9503 19.9365 15.929 20.0044 15.8934 20.0649C15.8578 20.1254 15.8088 20.177 15.75 20.2155ZM9.66122 18.4635L5.53655 14.3388C5.43131 14.2335 5.38266 14.0856 5.40652 13.9432C5.52914 13.2099 5.71969 12.5119 5.95556 11.8543L12.1444 18.0431C11.3546 18.326 10.6472 18.4948 10.0568 18.5935C9.91416 18.6172 9.76645 18.5687 9.66122 18.4635ZM4.13358 8.0446L6.42314 7.86774C5.49811 9.24957 4.80764 10.7 4.37653 12.1663L1.49072 11.7193L3.7845 8.25C3.82305 8.1913 3.87458 8.14224 3.93511 8.10662C3.99563 8.07101 4.06354 8.04978 4.13358 8.0446ZM16.7971 15.3236C15.6612 16.2711 14.5585 16.9564 13.5422 17.4523L6.54745 10.4576C7.19705 9.13083 7.98985 8.02604 8.67638 7.203C10.1096 5.4848 11.8921 4.00257 13.5669 3.13632C16.8704 1.42758 20.3509 1.33557 22.1316 1.4325C22.2452 1.43857 22.3526 1.48645 22.4331 1.56695C22.5136 1.64745 22.5615 1.75486 22.5675 1.86854C22.6646 3.64922 22.5724 7.12969 20.8637 10.4332C19.9975 12.108 18.5153 13.8904 16.7971 15.3236Z" fill="#EFEFEF"/>
<path d="M16.44 11.0741C17.3401 11.074 18.2406 10.7313 18.9259 10.0461C19.5899 9.3821 19.9555 8.49925 19.9555 7.56025C19.9555 6.62125 19.5898 5.73841 18.9259 5.07443C17.5551 3.70366 15.3248 3.70375 13.9542 5.07443C13.2902 5.73841 12.9245 6.62125 12.9245 7.56025C12.9245 8.49925 13.2902 9.3821 13.9542 10.0461C14.6396 10.7315 15.5396 11.0742 16.44 11.0741ZM14.9485 6.06874C15.3596 5.6575 15.8998 5.45191 16.4399 5.45191C16.9801 5.45191 17.5203 5.6575 17.9314 6.06874C18.3298 6.46713 18.5492 6.99682 18.5492 7.56021C18.5492 8.1236 18.3298 8.65333 17.9314 9.05172C17.1091 9.87414 15.7708 9.8741 14.9484 9.05172C14.55 8.65333 14.3306 8.12364 14.3306 7.56025C14.3306 6.99686 14.5501 6.46713 14.9485 6.06874ZM0.717211 19.7785C0.897164 19.7785 1.07712 19.7099 1.21437 19.5726L3.50998 17.277C3.78457 17.0024 3.78457 16.5572 3.50998 16.2826C3.23543 16.008 2.79021 16.008 2.51562 16.2826L0.220055 18.5782C-0.0545391 18.8528 -0.0545391 19.298 0.220055 19.5726C0.285263 19.638 0.362755 19.6898 0.448074 19.7252C0.533394 19.7605 0.624859 19.7787 0.717211 19.7785ZM5.61377 18.3864C5.33923 18.1118 4.89401 18.1118 4.61941 18.3864L0.205945 22.7999C-0.0686484 23.0745 -0.0686484 23.5197 0.205945 23.7943C0.343242 23.9316 0.523148 24.0002 0.703102 24.0002C0.883055 24.0002 1.06301 23.9316 1.20026 23.7942L5.61373 19.3808C5.88837 19.1062 5.88837 18.661 5.61377 18.3864ZM6.72321 20.4902L4.4276 22.7858C4.15301 23.0604 4.15301 23.5056 4.4276 23.7802C4.5649 23.9175 4.74485 23.9861 4.92476 23.9861C5.10466 23.9861 5.28466 23.9175 5.42191 23.7802L7.71752 21.4846C7.99212 21.21 7.99212 20.7648 7.71752 20.4902C7.44298 20.2156 6.99776 20.2156 6.72321 20.4902Z" fill="#EFEFEF"/>
</g>
<defs>
<clipPath id="clip0_713_553">
<rect width="24" height="24" fill="white"/>
</clipPath>
</defs>
</svg>
