<svg width="26" height="24" viewBox="0 0 26 24" fill="none" xmlns="http://www.w3.org/2000/svg">
<path d="M13.1583 5.71223L12.7556 4.80625C12.4923 4.21388 12.3607 3.91768 12.1638 3.69101C11.9171 3.40694 11.5955 3.19794 11.2357 3.08785C10.9486 3 10.6245 3 9.97621 3C9.02791 3 8.55376 3 8.15573 3.18229C7.68687 3.39702 7.26344 3.86328 7.09473 4.3506C6.95151 4.76429 6.99254 5.18943 7.07458 6.0397C7.94791 15.0902 12.9098 20.0521 21.9603 20.9254C22.8106 21.0075 23.2358 21.0485 23.6494 20.9053C24.1368 20.7366 24.603 20.3131 24.8178 19.8443C25 19.4462 25 18.9721 25 18.0238C25 17.3755 25 17.0514 24.9122 16.7643C24.8021 16.4045 24.5931 16.0829 24.309 15.8362C24.0824 15.6393 23.7862 15.5077 23.1938 15.2444L22.2878 14.8417C21.6463 14.5566 21.3255 14.4141 20.9996 14.3831C20.6876 14.3534 20.3731 14.3972 20.0811 14.5109C19.776 14.6297 19.5064 14.8544 18.967 15.3038C18.4302 15.7512 18.1618 15.9749 17.8338 16.0947C17.543 16.2009 17.1586 16.2403 16.8524 16.1951C16.5069 16.1442 16.2424 16.0029 15.7133 15.7201C14.0673 14.8405 13.1595 13.9328 12.2799 12.2867C11.9971 11.7577 11.8558 11.4931 11.8049 11.1477C11.7597 10.8414 11.7991 10.457 11.9053 10.1663C12.0251 9.83828 12.2488 9.56986 12.6962 9.033C13.1456 8.49368 13.3703 8.22402 13.4891 7.91891C13.6028 7.62694 13.6466 7.3124 13.6169 7.00048C13.5859 6.67452 13.4434 6.35376 13.1583 5.71223Z" stroke="#181818" stroke-width="1.5" stroke-linecap="round"/>
</svg>
