<svg width="40" height="32" viewBox="0 0 40 32" fill="none" xmlns="http://www.w3.org/2000/svg">
<g clip-path="url(#clip0_1606_961)">
<path d="M0.192396 18.8701C1.30437 18.8682 2.40961 19.0437 3.46694 19.3899C5.08492 19.9522 6.55813 20.8698 7.77965 22.0759C9.00117 23.282 9.94037 24.7465 10.5291 26.3631C10.8079 27.2505 11.0223 28.1571 11.1704 29.0757C11.3047 29.8664 11.3904 30.6646 11.427 31.4659H16.9499C17.136 30.1078 17.136 28.7304 16.9499 27.3723C16.2369 22.1936 12.985 18.9081 11.8872 17.8306C7.29982 13.3424 1.66745 12.7733 0 12.6709L0.192396 18.8701Z" fill="#057C80"/>
<path d="M0.0869141 6.2553C3.34065 6.23304 6.55245 6.99403 9.45408 8.47473C10.9501 9.26933 12.3513 10.2329 13.6303 11.3467C15.8396 13.1583 17.7418 15.3186 19.2626 17.7432C20.1864 19.2712 20.9452 20.8941 21.5261 22.5843C22.5471 25.4515 23.142 28.4544 23.2917 31.4962H28.7807C28.8728 30.0314 29.1648 28.5863 29.6484 27.2014C30.052 26.0633 31.7987 21.0667 35.956 19.6478C36.1861 19.5681 36.4389 19.4998 36.4389 19.4998C37.5844 19.1915 38.7786 19.1103 39.9549 19.2608V13.0616C39.2822 13.0008 38.6055 13.0008 37.9328 13.0616C32.1948 13.5737 28.4185 18.373 27.0944 20.2283L23.4124 14.2718C23.684 14.0214 24.0952 13.6534 24.6007 13.2209C26.8039 11.324 29.4258 9.11211 32.723 7.82977C35.0422 6.95019 37.5173 6.56268 39.9926 6.6916V0.515119C39.423 0.492356 38.8608 0.492356 38.261 0.515119C30.2897 0.837601 24.0386 5.52687 20.1228 9.37768C19.6814 8.91483 18.9684 8.19398 18.0366 7.37829C15.9504 5.54584 11.8232 1.92645 5.80228 0.856571C3.92683 0.525282 2.01457 0.45888 0.120868 0.659288L0.0869141 6.2553Z" fill="#057C80"/>
</g>
<defs>
<clipPath id="clip0_1606_961">
<rect width="40" height="31" fill="white" transform="translate(0 0.5)"/>
</clipPath>
</defs>
</svg>
