<svg width="16" height="17" viewBox="0 0 16 17" fill="none" xmlns="http://www.w3.org/2000/svg">
<path fill-rule="evenodd" clip-rule="evenodd" d="M6.28592 6.47925H8.76192V7.71259C9.11858 7.00325 10.0333 6.36592 11.4073 6.36592C14.0413 6.36592 14.6666 7.77792 14.6666 10.3686V15.1666H11.9999V10.9586C11.9999 9.48325 11.6433 8.65125 10.7353 8.65125C9.47592 8.65125 8.95258 9.54792 8.95258 10.9579V15.1666H6.28592V6.47925ZM1.71325 15.0533H4.37992V6.36592H1.71325V15.0533ZM4.76192 3.53325C4.76202 3.75677 4.71769 3.97808 4.63151 4.18431C4.54533 4.39055 4.41902 4.57759 4.25992 4.73459C4.10034 4.89333 3.91106 5.01908 3.70287 5.10464C3.49468 5.1902 3.27167 5.23391 3.04659 5.23325C2.59299 5.23223 2.15786 5.05344 1.83459 4.73525C1.67612 4.57768 1.55027 4.39042 1.46425 4.18417C1.37823 3.97791 1.33371 3.75672 1.33325 3.53325C1.33325 3.08192 1.51325 2.64992 1.83525 2.33125C2.15772 2.01184 2.59337 1.83284 3.04725 1.83325C3.50192 1.83325 3.93792 2.01259 4.25992 2.33125C4.58192 2.64992 4.76192 3.08192 4.76192 3.53325Z" fill="white"/>
</svg>
