<svg width="25" height="24" viewBox="0 0 25 24" fill="none" xmlns="http://www.w3.org/2000/svg">
<path d="M11 18C9.17107 18.4117 8 19.0443 8 19.7537C8 20.9943 11.5817 22 16 22C20.4183 22 24 20.9943 24 19.7537C24 19.0443 22.8289 18.4117 21 18" stroke="#181818" stroke-width="1.5" stroke-linecap="round"/>
<path d="M18.5 9C18.5 10.3807 17.3807 11.5 16 11.5C14.6193 11.5 13.5 10.3807 13.5 9C13.5 7.61929 14.6193 6.5 16 6.5C17.3807 6.5 18.5 7.61929 18.5 9Z" stroke="#181818" stroke-width="1.5"/>
<path d="M17.2574 17.4936C16.9201 17.8184 16.4693 18 16.0002 18C15.531 18 15.0802 17.8184 14.7429 17.4936C11.6543 14.5008 7.51519 11.1575 9.53371 6.30373C10.6251 3.67932 13.2449 2 16.0002 2C18.7554 2 21.3752 3.67933 22.4666 6.30373C24.4826 11.1514 20.3536 14.5111 17.2574 17.4936Z" stroke="#181818" stroke-width="1.5"/>
</svg>
