<svg width="40" height="32" viewBox="0 0 40 32" fill="none" xmlns="http://www.w3.org/2000/svg">
<g clip-path="url(#clip0_966_573)">
<path d="M0.192396 18.8701C1.30437 18.8682 2.40961 19.0436 3.46694 19.3899C5.08492 19.9522 6.55813 20.8697 7.77965 22.0759C9.00117 23.282 9.94037 24.7465 10.5291 26.3631C10.8079 27.2505 11.0223 28.1571 11.1704 29.0757C11.3047 29.8664 11.3904 30.6646 11.427 31.4659H16.9499C17.136 30.1077 17.136 28.7304 16.9499 27.3722C16.2369 22.1936 12.985 18.908 11.8872 17.8306C7.29982 13.3424 1.66745 12.7733 0 12.6709L0.192396 18.8701Z" fill="#0E4F53"/>
<path d="M0.086792 6.25536C3.34052 6.2331 6.55233 6.99409 9.45395 8.47479C10.95 9.26939 12.3511 10.2329 13.6301 11.3468C15.8394 13.1583 17.7416 15.3186 19.2625 17.7433C20.1863 19.2713 20.9451 20.8942 21.526 22.5843C22.5469 25.4515 23.1418 28.4545 23.2915 31.4962H28.7806C28.8727 30.0314 29.1646 28.5863 29.6482 27.2015C30.0519 26.0633 31.7986 21.0668 35.9559 19.6478C36.186 19.5682 36.4388 19.4999 36.4388 19.4999C37.5842 19.1915 38.7784 19.1103 39.9548 19.2609V13.0616C39.2821 13.0008 38.6054 13.0008 37.9327 13.0616C32.1947 13.5738 28.4184 18.3731 27.0942 20.2283L23.4123 14.2719C23.6839 14.0215 24.0951 13.6535 24.6006 13.221C26.8038 11.324 29.4257 9.11217 32.7228 7.82983C35.0421 6.95026 37.5171 6.56274 39.9925 6.69166V0.51518C39.4228 0.492417 38.8607 0.492417 38.2609 0.51518C30.2896 0.837662 24.0385 5.52693 20.1226 9.37774C19.6812 8.91489 18.9682 8.19404 18.0364 7.37836C15.9502 5.5459 11.8231 1.92651 5.80216 0.856633C3.92671 0.525343 2.01445 0.458941 0.120746 0.659349L0.086792 6.25536Z" fill="#0E4F53"/>
</g>
<defs>
<clipPath id="clip0_966_573">
<rect width="40" height="31" fill="white" transform="translate(0 0.5)"/>
</clipPath>
</defs>
</svg>
