<svg width="40" height="41" viewBox="0 0 40 41" fill="none" xmlns="http://www.w3.org/2000/svg">
<g clip-path="url(#clip0_375_550)">
<path d="M20.9246 0.757824C20.6376 0.593362 20.3125 0.506836 19.9816 0.506836C19.6508 0.506836 19.3257 0.593362 19.0387 0.757824L3.46992 9.80001C2.87773 10.135 2.54492 10.7672 2.54492 11.4375V29.5588C2.54492 30.2284 2.91461 30.8609 3.4693 31.1963L19.038 40.2381C19.3251 40.4027 19.6503 40.4892 19.9812 40.4892C20.3121 40.4892 20.6372 40.4027 20.9243 40.2381L36.493 31.1959C37.0849 30.8609 37.4174 30.2284 37.4174 29.5584V11.4375C37.4174 10.7675 37.0477 10.1353 36.493 9.80001L20.9246 0.757824Z" fill="url(#paint0_linear_375_550)"/>
<path d="M36.5301 9.7999L20.8876 0.757715C20.7341 0.679325 20.573 0.617014 20.4067 0.571777L2.87793 30.7493C3.02314 30.9273 3.19839 31.0785 3.39574 31.1961L19.0386 40.238C19.4823 40.4983 19.9998 40.573 20.4807 40.424L36.937 10.1349C36.829 9.9934 36.6897 9.87876 36.5301 9.7999Z" fill="url(#paint1_linear_375_550)"/>
<path d="M36.5308 31.1954C36.9746 30.9351 37.3074 30.4885 37.4552 30.0048L20.3333 0.533831C19.8896 0.459456 19.4087 0.496643 19.0021 0.757268L3.47021 9.76227L20.2221 40.4982C20.444 40.4607 20.7033 40.3863 20.9252 40.2748L36.5308 31.1954Z" fill="url(#paint2_linear_375_550)"/>
</g>
<defs>
<linearGradient id="paint0_linear_375_550" x1="26.3217" y1="7.49143" x2="12.1034" y2="36.3165" gradientUnits="userSpaceOnUse">
<stop stop-color="#3F873F"/>
<stop offset="0.33" stop-color="#3F8B3D"/>
<stop offset="0.637" stop-color="#3E9638"/>
<stop offset="0.934" stop-color="#3DA92E"/>
<stop offset="1" stop-color="#3DAE2B"/>
</linearGradient>
<linearGradient id="paint1_linear_375_550" x1="17.6156" y1="22.6142" x2="57.2861" y2="-6.51629" gradientUnits="userSpaceOnUse">
<stop offset="0.138" stop-color="#3F873F"/>
<stop offset="0.402" stop-color="#52A044"/>
<stop offset="0.713" stop-color="#64B749"/>
<stop offset="0.908" stop-color="#6ABF4B"/>
</linearGradient>
<linearGradient id="paint2_linear_375_550" x1="1.97512" y1="20.4921" x2="38.0002" y2="20.4921" gradientUnits="userSpaceOnUse">
<stop offset="0.092" stop-color="#6ABF4B"/>
<stop offset="0.287" stop-color="#64B749"/>
<stop offset="0.598" stop-color="#52A044"/>
<stop offset="0.862" stop-color="#3F873F"/>
</linearGradient>
<clipPath id="clip0_375_550">
<rect width="40" height="40" fill="white" transform="translate(0 0.5)"/>
</clipPath>
</defs>
</svg>
