<svg width="40" height="41" viewBox="0 0 40 41" fill="none" xmlns="http://www.w3.org/2000/svg">
<path d="M18.6533 26.7616C18.6533 25.2949 18.27 24.0633 17.5033 23.0666C16.96 22.3799 16.2228 21.9288 15.2916 21.7133C14.375 21.4999 13.5083 21.4849 12.725 21.6666C12.4583 20.0833 12.8916 18.4066 13.9916 16.6299C15.0939 14.8544 16.515 13.5194 18.255 12.6249L15.62 8.83325C14.2866 9.49325 13.02 10.3299 11.8533 11.3416C10.67 12.3533 9.61998 13.5166 8.68665 14.8316C7.75331 16.1466 7.05331 17.6316 6.60331 19.3149C6.15331 20.9983 6.02832 22.7149 6.24332 24.4816C6.52332 26.8149 7.27665 28.6816 8.50332 30.0649C9.72887 31.466 11.2555 32.1666 13.0833 32.1666C14.6916 32.1666 16.0266 31.6833 17.0833 30.7033C18.1289 29.7433 18.6511 28.4277 18.65 26.7566L18.6533 26.7616ZM33.86 26.7616C33.86 25.2949 33.4766 24.0633 32.71 23.0666C32.1655 22.3666 31.4283 21.9127 30.4983 21.7049C29.565 21.4994 28.7094 21.4871 27.9317 21.6683C27.665 20.1016 28.0816 18.4183 29.185 16.6349C30.285 14.8683 31.705 13.5349 33.445 12.6349L30.8166 8.83325C29.4822 9.49325 28.2266 10.3294 27.05 11.3416C25.856 12.3684 24.7955 13.5409 23.8933 14.8316C22.9667 16.1483 22.2766 17.6316 21.8266 19.3149C21.3695 20.9969 21.2467 22.7523 21.465 24.4816C21.7416 26.8149 22.4916 28.6816 23.715 30.0649C24.9372 31.456 26.4611 32.1516 28.2866 32.1516C29.8978 32.1538 31.2322 31.6666 32.29 30.6899C33.3355 29.7299 33.8589 28.4144 33.86 26.7433V26.7616Z" fill="#003C42"/>
</svg>
