<svg width="24" height="24" viewBox="0 0 24 24" fill="none" xmlns="http://www.w3.org/2000/svg">
<path d="M23.7446 14.9032C23.2881 14.2324 22.3688 14.0548 21.6959 14.507L18.633 16.5568L18.6241 10.1766L19.6882 11.1734C19.9132 11.3849 20.2105 11.5024 20.5192 11.502H20.5211C20.6871 11.5015 20.8513 11.4671 21.0037 11.401C21.156 11.3349 21.2932 11.2384 21.4069 11.1174C21.629 10.8803 21.7455 10.571 21.7349 10.2464C21.7243 9.92173 21.5879 9.62065 21.3508 9.39861L19.3335 7.50889C19.2669 7.44906 19.1794 7.41773 19.0899 7.42161C19.0004 7.4255 18.9159 7.46429 18.8547 7.52968C18.7934 7.59507 18.7602 7.68185 18.7622 7.77143C18.7641 7.861 18.8011 7.94625 18.8651 8.0089L20.8824 9.89862C20.9334 9.94616 20.9745 10.0033 21.0033 10.0669C21.0321 10.1304 21.048 10.199 21.0501 10.2687C21.0525 10.3384 21.0411 10.4079 21.0166 10.4731C20.992 10.5384 20.9547 10.5981 20.9069 10.6489C20.8575 10.7021 20.7976 10.7444 20.731 10.7733C20.6645 10.8022 20.5926 10.817 20.52 10.8168H20.5192C20.3841 10.8168 20.2553 10.7659 20.1566 10.6734L20.1565 10.6733L12.1464 3.16962C12.0828 3.11004 11.9989 3.07694 11.9118 3.07707C11.8246 3.07719 11.7408 3.11052 11.6774 3.17028L3.68808 10.6964C3.63741 10.7443 3.57776 10.7817 3.51257 10.8065C3.44738 10.8312 3.37794 10.8428 3.30825 10.8406C3.23853 10.8387 3.16988 10.823 3.10627 10.7944C3.04266 10.7658 2.98537 10.7248 2.9377 10.6739C2.88974 10.6233 2.8523 10.5637 2.82755 10.4985C2.8028 10.4333 2.79123 10.3638 2.79352 10.2942C2.7954 10.2244 2.8111 10.1558 2.8397 10.0922C2.86829 10.0286 2.90922 9.97129 2.96011 9.9236L11.5465 1.83495C11.7501 1.64318 12.0694 1.64271 12.2734 1.83396L17.2969 6.53984C17.3297 6.5706 17.3683 6.59459 17.4104 6.61044C17.4525 6.62629 17.4973 6.63369 17.5423 6.63223C17.5872 6.63076 17.6315 6.62045 17.6724 6.60189C17.7134 6.58333 17.7503 6.55687 17.7811 6.52404C17.8118 6.49121 17.8358 6.45264 17.8517 6.41054C17.8675 6.36844 17.8749 6.32362 17.8735 6.27866C17.872 6.2337 17.8617 6.18946 17.8431 6.14848C17.8246 6.1075 17.7981 6.07058 17.7653 6.03982L12.7419 1.33395C12.2744 0.895948 11.543 0.896933 11.0767 1.33625L8.32805 3.92562L8.3273 3.46376C8.3274 3.39216 8.3133 3.32126 8.2858 3.25515C8.25831 3.18904 8.21797 3.12904 8.16712 3.07864C8.11666 3.02803 8.05668 2.98792 7.99064 2.96061C7.92459 2.9333 7.85379 2.91935 7.78233 2.91954H7.78153L5.81527 2.92231C5.74367 2.92221 5.67276 2.93632 5.60666 2.96381C5.54055 2.9913 5.48055 3.03164 5.43014 3.08248C5.37945 3.13305 5.33928 3.19317 5.31198 3.25937C5.28468 3.32556 5.27079 3.39652 5.27109 3.46812L5.27653 6.80032L2.49033 9.425C2.25389 9.6477 2.11838 9.94915 2.10867 10.2738C2.09897 10.5985 2.2163 10.9075 2.439 11.1438C2.66166 11.3802 2.96311 11.5158 3.28781 11.5255C3.30023 11.5259 3.31266 11.5261 3.32508 11.5261C3.63609 11.5261 3.93061 11.4094 4.15791 11.1951L5.21958 10.195L5.2238 13.2087C4.87937 13.1582 4.53174 13.1327 4.18364 13.1324H3.59747V12.927C3.59747 12.2374 3.03642 11.6764 2.34684 11.6764H1.25063C0.561047 11.6763 0 12.2373 0 12.9269V18.295C0 18.3858 0.0360913 18.4729 0.100334 18.5372C0.164577 18.6014 0.251709 18.6375 0.342562 18.6375C0.433416 18.6375 0.520548 18.6014 0.584791 18.5372C0.649034 18.4729 0.685125 18.3858 0.685125 18.295V12.9269C0.685125 12.6151 0.938812 12.3614 1.25063 12.3614H2.3468C2.65861 12.3614 2.9123 12.6151 2.9123 12.9269V21.0392C2.9123 21.351 2.65861 21.6047 2.3468 21.6047H1.25063C0.938812 21.6047 0.685125 21.351 0.685125 21.0392V20.4397C0.685125 20.3489 0.649034 20.2617 0.584791 20.1975C0.520548 20.1333 0.433416 20.0972 0.342562 20.0972C0.251709 20.0972 0.164577 20.1333 0.100334 20.1975C0.0360913 20.2617 0 20.3489 0 20.4397L0 21.0392C0 21.7287 0.561047 22.2898 1.25063 22.2898H2.3468C3.03638 22.2898 3.59742 21.7288 3.59742 21.0392V20.9926L8.61417 22.8924C8.62345 22.8959 8.63287 22.899 8.64244 22.9017C8.86055 22.9632 9.07856 22.9941 9.29381 22.9941C9.41025 22.9941 9.52589 22.9851 9.64036 22.967L17.0129 21.9042L17.0181 21.9034C17.6456 21.803 18.2355 21.5387 18.7281 21.1372C18.7323 21.1338 18.7365 21.1302 18.7406 21.1264L23.5036 16.8426C24.0583 16.3502 24.1619 15.5164 23.7446 14.9032ZM7.64236 3.6049L7.64395 4.57006L5.96058 6.15584L5.95641 3.6072L7.64236 3.6049ZM11.9129 3.88962L17.9381 9.53393L17.9485 17.0149L16.9786 17.664L15.9516 17.6064L15.9244 17.3336C15.879 16.8688 15.6849 16.4312 15.371 16.0856C15.057 15.74 14.6399 15.5049 14.1816 15.4153L14.1754 10.9648C14.175 10.6233 13.8969 10.3457 13.5554 10.3457H13.5546L10.2895 10.3503C10.2081 10.3502 10.1274 10.3662 10.0522 10.3975C9.977 10.4288 9.90874 10.4747 9.85139 10.5325C9.79372 10.59 9.74802 10.6584 9.71696 10.7337C9.68589 10.809 9.67007 10.8897 9.67041 10.9711L9.67584 14.8515C9.02834 14.7036 8.40728 14.4575 7.83422 14.1217C7.76221 14.0797 7.68948 14.0389 7.61606 13.9993C7.58747 13.9839 7.55841 13.9694 7.52958 13.9544C7.48495 13.9311 7.44042 13.9077 7.39533 13.8853C7.35942 13.8675 7.32309 13.8506 7.28691 13.8334C7.24852 13.8152 7.21017 13.7967 7.1715 13.7792C7.13213 13.7613 7.09242 13.7443 7.05277 13.7271C7.01653 13.7115 6.9803 13.6957 6.94383 13.6807C6.90305 13.6639 6.86203 13.6477 6.82097 13.6316C6.78455 13.6174 6.74808 13.6032 6.71147 13.5895C6.67083 13.5743 6.63 13.5597 6.58908 13.5453C6.47014 13.5033 6.35012 13.4645 6.22913 13.4289C6.1928 13.4182 6.15652 13.4075 6.12 13.3974C6.07229 13.3842 6.02444 13.3716 5.97647 13.3594C5.95402 13.3536 5.9317 13.3471 5.90911 13.3415L5.90381 9.55039L11.9129 3.88962ZM13.4964 15.3296L10.6312 14.9997L10.3612 14.9687L10.3557 11.0353L13.4904 11.0309L13.4964 15.3296ZM23.0472 16.3318L18.2888 20.6114C17.8917 20.9333 17.4172 21.1453 16.9125 21.2265L9.54319 22.2888L9.53859 22.2895L9.53348 22.2903C9.31022 22.3257 9.07772 22.3107 8.84236 22.2462L3.59747 20.26V13.8175H4.18364C4.69937 13.8177 5.21327 13.8788 5.71463 13.9997C5.77392 14.014 5.83308 14.0287 5.89195 14.0447L5.90738 14.049C5.96639 14.0651 6.02517 14.0821 6.08377 14.0999C6.09427 14.1031 6.10481 14.1062 6.11527 14.1094C6.17761 14.1287 6.23967 14.1488 6.30141 14.1699L6.32048 14.1766C6.45619 14.2234 6.5903 14.2747 6.72262 14.3304C6.78701 14.3575 6.85095 14.3856 6.91444 14.4147C6.97425 14.4421 7.03364 14.4706 7.09266 14.4999C7.09959 14.5033 7.10658 14.5067 7.11352 14.5102C7.17117 14.539 7.22836 14.5689 7.28522 14.5994C7.29595 14.6052 7.30664 14.6111 7.31738 14.6169C7.37475 14.6482 7.4318 14.6801 7.48828 14.7131C8.30348 15.19 9.19092 15.4988 10.126 15.6312C10.1289 15.6316 10.1318 15.6319 10.1348 15.6323L13.973 16.0742C14.2598 16.115 14.5284 16.2387 14.7458 16.4303C14.9632 16.6218 15.1198 16.8726 15.1965 17.152C15.2186 17.2325 15.2341 17.3159 15.2427 17.4013L15.2579 17.5546L8.06447 16.9244C8.01966 16.9205 7.97451 16.9254 7.9316 16.9389C7.8887 16.9524 7.84887 16.9743 7.81441 17.0032C7.7448 17.0616 7.70124 17.1452 7.69331 17.2357C7.68538 17.3262 7.71373 17.4162 7.77212 17.4858C7.8305 17.5554 7.91415 17.599 8.00466 17.6069L15.6097 18.2732C15.6116 18.2734 15.6134 18.2733 15.6151 18.2734C15.6169 18.2736 15.6187 18.2739 15.6205 18.274L17.0547 18.3545C17.0611 18.3549 17.0675 18.355 17.0739 18.355C17.0807 18.355 17.0874 18.3539 17.0941 18.3535C17.1018 18.353 17.1094 18.3528 17.117 18.3518C17.1272 18.3505 17.1372 18.3483 17.1473 18.3461C17.1544 18.3445 17.1616 18.3433 17.1687 18.3413C17.1796 18.3381 17.1902 18.3339 17.2008 18.3296C17.2065 18.3273 17.2125 18.3256 17.2181 18.3229C17.2341 18.3155 17.2496 18.307 17.2644 18.2971L18.4819 17.4823L18.482 17.4822L22.0774 15.076C22.4392 14.8329 22.9329 14.9283 23.1781 15.2886C23.4023 15.618 23.3467 16.0659 23.0472 16.3318Z" fill="#EFEFEF"/>
</svg>
