<svg width="24" height="24" viewBox="0 0 24 24" fill="none" xmlns="http://www.w3.org/2000/svg">
<g clip-path="url(#clip0_713_540)">
<path d="M15.3 23.9999H9.07501C8.85001 23.9999 8.70001 23.8124 8.70001 23.6249V21.8999C8.70001 21.6749 8.88751 21.5249 9.07501 21.5249C9.26251 21.5249 9.45001 21.7124 9.45001 21.8999V23.2499H14.8875V21.8999C14.8875 21.6749 15.075 21.5249 15.2625 21.5249C15.45 21.5249 15.6375 21.7124 15.6375 21.8999V23.6249C15.675 23.8499 15.4875 23.9999 15.3 23.9999Z" fill="#EFEFEF"/>
<path d="M17.025 24H7.35C7.125 24 6.975 23.8125 6.975 23.625C6.975 23.4375 7.1625 23.25 7.35 23.25H17.025C17.25 23.25 17.4 23.4375 17.4 23.625C17.4 23.8125 17.2125 24 17.025 24ZM23.625 16.65H0.75C0.525 16.65 0.375 16.4625 0.375 16.275V8.7C0.375 8.475 0.5625 8.325 0.75 8.325C0.9375 8.325 1.125 8.5125 1.125 8.7V15.8625H23.25V4.9125C23.25 4.275 22.725 3.75 22.0875 3.75H9.825C9.6 3.75 9.45 3.5625 9.45 3.375C9.45 3.1875 9.6375 3 9.825 3H22.0875C23.1375 3 24 3.8625 24 4.9125V16.275C24 16.4625 23.8125 16.65 23.625 16.65Z" fill="#EFEFEF"/>
<path d="M22.0875 20.7375H2.25C1.2 20.7375 0.375 19.875 0.375 18.825V16.2375C0.375 16.0125 0.5625 15.8625 0.75 15.8625H23.625C23.85 15.8625 24 16.05 24 16.2375V18.825C24 19.875 23.1375 20.7375 22.0875 20.7375ZM1.125 16.65V18.825C1.125 19.4625 1.65 19.9875 2.2875 19.9875H22.125C22.7625 19.9875 23.2875 19.4625 23.2875 18.825V16.65H1.125Z" fill="#EFEFEF"/>
<path d="M12.1875 19.4626C11.55 19.4626 11.0625 18.9376 11.0625 18.3376C11.0625 17.7001 11.5875 17.2126 12.1875 17.2126C12.825 17.2126 13.3125 17.7376 13.3125 18.3376C13.3125 18.9376 12.825 19.4626 12.1875 19.4626ZM12.1875 17.9251C11.9625 17.9251 11.8125 18.1126 11.8125 18.3001C11.8125 18.5251 12 18.6751 12.1875 18.6751C12.4125 18.6751 12.5625 18.4876 12.5625 18.3001C12.5625 18.1126 12.375 17.9251 12.1875 17.9251ZM12.4125 14.9251H11.925C11.5125 14.9251 11.1375 14.6251 11.0625 14.2126L10.95 13.4626C10.95 13.4251 10.9125 13.3876 10.875 13.3876C10.7625 13.3501 10.65 13.3126 10.5375 13.2376C10.5 13.2376 10.4625 13.2001 10.425 13.2376L9.825 13.6876C9.4875 13.9501 9 13.9126 8.7 13.6126L8.3625 13.2376C8.0625 12.9376 8.025 12.4876 8.2875 12.1501L8.7375 11.5501C8.775 11.5126 8.775 11.4751 8.7375 11.4376C8.7 11.3251 8.625 11.2126 8.5875 11.1001L8.5125 11.0251L7.7625 10.9126C7.425 10.8751 7.125 10.5001 7.125 10.0876V9.5626C7.125 9.1501 7.425 8.7751 7.8375 8.7001L8.5875 8.5876C8.625 8.5876 8.6625 8.5501 8.6625 8.5126C8.7 8.4001 8.7375 8.2876 8.8125 8.1751V8.1001L8.325 7.5001C8.0625 7.1626 8.1 6.7126 8.4 6.4126L8.7375 6.0376C9.0375 5.7376 9.525 5.7001 9.8625 5.9626L10.4625 6.4126C10.5 6.4501 10.5375 6.4126 10.575 6.4126C10.6875 6.3751 10.8 6.3001 10.9125 6.2626C10.95 6.2626 10.9875 6.2251 10.9875 6.1876L11.1 5.4376C11.175 5.0251 11.5125 4.7251 11.9625 4.7251H12.45C12.8625 4.7251 13.2375 5.0251 13.3125 5.4376L13.425 6.1876C13.425 6.2251 13.4625 6.2626 13.5 6.2626C13.6125 6.3001 13.725 6.3376 13.8375 6.4126H13.95L14.55 5.9626C14.8875 5.7376 15.375 5.7376 15.675 6.0376L16.0125 6.4126C16.3125 6.7126 16.35 7.1626 16.0875 7.5001L15.6375 8.1001C15.6 8.1376 15.6 8.1751 15.6375 8.2126C15.675 8.3251 15.75 8.4376 15.7875 8.5501C15.7875 8.5876 15.825 8.6251 15.8625 8.6251L16.6125 8.7376C17.025 8.8126 17.325 9.1501 17.325 9.6001V10.1251C17.325 10.5376 17.025 10.9126 16.6125 10.9876L15.8625 11.1001C15.825 11.1001 15.7875 11.1376 15.7875 11.1751C15.75 11.2876 15.7125 11.4001 15.6375 11.5126V11.5876L16.0875 12.1876C16.35 12.5251 16.3125 12.9751 16.0125 13.2751L15.675 13.6501C15.375 13.9501 14.8875 13.9876 14.55 13.7251L13.875 13.2376C13.8375 13.2001 13.8 13.2001 13.7625 13.2376C13.65 13.2751 13.5375 13.3501 13.425 13.3876C13.3875 13.3876 13.3875 13.4251 13.3875 13.4626L13.275 14.2126C13.2 14.6251 12.8625 14.9251 12.4125 14.9251ZM10.5375 12.4876C10.65 12.4876 10.8 12.5251 10.9125 12.5626C10.9875 12.6001 11.1 12.6376 11.175 12.6751C11.475 12.7876 11.6625 13.0501 11.7375 13.3501L11.85 14.1001C11.85 14.1376 11.8875 14.1751 11.925 14.1751H12.4125C12.45 14.1751 12.4875 14.1376 12.4875 14.1001L12.6 13.3501C12.6375 13.0501 12.8625 12.7876 13.1625 12.6751C13.275 12.6376 13.35 12.6001 13.425 12.5626C13.6875 12.4501 14.0625 12.4501 14.2875 12.6376L14.8875 13.0876C14.925 13.1251 14.9625 13.1251 15 13.0876L15.3375 12.7126C15.375 12.6751 15.375 12.6376 15.3375 12.6001L14.9625 12.0001C14.775 11.7376 14.7375 11.4376 14.8875 11.1376C14.925 11.0626 14.9625 10.9501 15 10.8751C15.1125 10.5751 15.375 10.3501 15.675 10.3126L16.3875 10.2001C16.425 10.2001 16.4625 10.1626 16.4625 10.1251V9.6001C16.4625 9.5626 16.425 9.5251 16.3875 9.5251L15.6375 9.4126C15.3375 9.3751 15.075 9.1501 14.9625 8.8501C14.925 8.7376 14.8875 8.6626 14.85 8.5876C14.7 8.2876 14.7375 7.9501 14.925 7.7251L15.375 7.1251C15.4125 7.0876 15.4125 7.0501 15.375 7.0126L15.0375 6.6751C15 6.6376 14.9625 6.6376 14.925 6.6751L14.325 7.1251C14.1 7.3126 13.725 7.3501 13.4625 7.2001C13.3875 7.1626 13.275 7.1251 13.2 7.0876C12.9 6.9751 12.7125 6.7126 12.6375 6.4126L12.525 5.6626C12.525 5.6251 12.4875 5.5876 12.45 5.5876H11.9625C11.925 5.5876 11.8875 5.6251 11.8875 5.6626L11.775 6.4126C11.7375 6.7126 11.5125 6.9751 11.2125 7.0876C11.1375 7.1251 11.025 7.1626 10.95 7.2001C10.6875 7.3126 10.3125 7.3126 10.0875 7.1251L9.4875 6.6751C9.45 6.6376 9.4125 6.6376 9.375 6.6751L9.0375 7.0501C9 7.0876 9 7.1251 9.0375 7.1626L9.4875 7.7626C9.675 8.0251 9.7125 8.3251 9.5625 8.6251C9.525 8.7001 9.4875 8.8126 9.45 8.8876C9.3375 9.1876 9.075 9.4126 8.775 9.4501L8.0625 9.5626C8.025 9.5626 7.9875 9.6001 7.9875 9.6376V10.1626C7.9875 10.2001 8.025 10.2376 8.0625 10.2376L8.8125 10.3501C9.1125 10.3876 9.375 10.6126 9.4875 10.9126C9.525 11.0251 9.5625 11.1001 9.6 11.1751C9.75 11.4751 9.7125 11.8126 9.525 12.0376L9.075 12.6376C9.0375 12.6751 9.0375 12.7126 9.075 12.7501L9.4125 13.0876C9.45 13.1251 9.4875 13.1251 9.525 13.0876L10.125 12.6376C10.1625 12.5251 10.35 12.4876 10.5375 12.4876Z" fill="#EFEFEF"/>
<path d="M12.1875 11.9625C10.9875 11.9625 10.05 10.9875 10.05 9.825C10.05 8.6625 11.025 7.6875 12.1875 7.6875C13.3875 7.6875 14.325 8.6625 14.325 9.825C14.325 10.9875 13.35 11.9625 12.1875 11.9625ZM12.1875 8.4375C11.4375 8.4375 10.8 9.075 10.8 9.825C10.8 10.575 11.4375 11.2125 12.1875 11.2125C12.9375 11.2125 13.575 10.575 13.575 9.825C13.575 9.075 12.9375 8.4375 12.1875 8.4375ZM4.65 8.9625H4.2375C3.8625 8.9625 3.525 8.6625 3.45 8.2875L3.3375 7.65C3.225 7.575 3.1125 7.5375 3 7.5L2.475 7.875C2.1375 8.1 1.6875 8.0625 1.425 7.8L1.1625 7.5C0.9 7.2375 0.8625 6.7875 1.0875 6.4875L1.4625 5.9625L1.35 5.625L0.675 5.5125C0.3 5.4375 0 5.1 0 4.725V4.275C0 3.9 0.3 3.5625 0.675 3.4875L1.3125 3.375L1.35 3.3375C1.3875 3.225 1.425 3.15 1.4625 3.0375L1.0875 2.475C0.8625 2.1375 0.9 1.725 1.1625 1.4625L1.4625 1.1625C1.725 0.9 2.175 0.8625 2.5125 1.0875L3.0375 1.4625L3.375 1.35L3.4875 0.675C3.5625 0.3 3.9 0 4.275 0H4.6875C5.0625 0 5.4 0.3 5.475 0.675L5.5875 1.3125L5.625 1.35C5.7375 1.3875 5.8125 1.425 5.925 1.4625L6.4875 1.0875C6.7875 0.8625 7.275 0.9 7.5375 1.1625L7.8375 1.4625C8.1 1.725 8.1375 2.175 7.9125 2.475L7.5375 3L7.65 3.3375L8.325 3.45C8.7 3.525 9 3.8625 9 4.2375V4.6875C9 5.1 8.7 5.4 8.325 5.475L7.6875 5.5875C7.6125 5.7 7.575 5.8125 7.5375 5.925L7.9125 6.4875C8.1375 6.7875 8.1 7.2375 7.8375 7.5L7.5375 7.8C7.275 8.0625 6.7875 8.1 6.4875 7.875L5.9625 7.5L5.625 7.6125L5.5125 8.2875C5.4 8.7 5.0625 8.9625 4.65 8.9625ZM3.0375 6.75C3.15 6.75 3.2625 6.7875 3.375 6.825L3.6 6.9375C3.8625 7.05 4.05 7.275 4.125 7.575L4.2375 8.2125L4.6875 8.25C4.6875 8.25 4.725 8.25 4.725 8.2125L4.8375 7.575C4.875 7.275 5.0625 7.05 5.3625 6.9375C5.4375 6.9 5.5125 6.8625 5.5875 6.8625C5.85 6.7125 6.1875 6.75 6.4125 6.9375L6.9375 7.3125H6.975L7.275 7.0125V6.975L6.9 6.45C6.7125 6.225 6.7125 5.925 6.825 5.625L6.9375 5.4C7.05 5.1375 7.275 4.9125 7.575 4.875L8.175 4.7625L8.2125 4.725V4.275L8.175 4.2375L7.4625 4.125C7.1625 4.0875 6.9375 3.9 6.825 3.6C6.825 3.525 6.7875 3.45 6.75 3.375C6.6375 3.1125 6.6375 2.775 6.825 2.55L7.2 2.025V1.9875L6.9 1.6875H6.8625L6.3375 2.0625C6.1125 2.25 5.775 2.25 5.5125 2.1375L5.2875 2.025C5.025 1.9125 4.8375 1.6875 4.7625 1.3875L4.65 0.75H4.2375C4.2375 0.75 4.2 0.75 4.2 0.7875L4.0875 1.425C4.05 1.725 3.8625 1.95 3.5625 2.0625C3.525 2.1 3.45 2.1 3.375 2.1375C3.1125 2.2875 2.775 2.25 2.55 2.0625L2.025 1.6875H1.9875L1.6875 1.9875V2.025L2.0625 2.55C2.25 2.8125 2.2875 3.1125 2.1375 3.375C2.1 3.45 2.0625 3.525 2.0625 3.6C1.95 3.8625 1.725 4.0875 1.425 4.125L0.7875 4.2375L0.75 4.275V4.725L0.7875 4.7625L1.425 4.875C1.725 4.9125 1.95 5.1 2.0625 5.4L2.175 5.625C2.2875 5.8875 2.2875 6.225 2.1 6.45L1.725 6.975V7.0125L2.025 7.3125L2.25 7.575L2.025 7.275L2.55 6.9C2.7 6.7875 2.85 6.75 3.0375 6.75Z" fill="#EFEFEF"/>
<path d="M4.46249 6.3749C3.37499 6.3749 2.54999 5.5499 2.54999 4.4999C2.54999 3.4499 3.37499 2.5874 4.46249 2.5874C5.54999 2.5874 6.37499 3.4124 6.37499 4.4999C6.37499 5.5874 5.51249 6.3749 4.46249 6.3749ZM4.46249 3.3374C3.82499 3.3374 3.29999 3.8624 3.29999 4.4999C3.29999 5.1374 3.82499 5.6624 4.46249 5.6624C5.09999 5.6624 5.62499 5.1374 5.62499 4.4999C5.58749 3.8624 5.06249 3.3374 4.46249 3.3374Z" fill="#EFEFEF"/>
</g>
<defs>
<clipPath id="clip0_713_540">
<rect width="24" height="24" fill="white"/>
</clipPath>
</defs>
</svg>
