<svg width="41" height="40" viewBox="0 0 41 40" fill="none" xmlns="http://www.w3.org/2000/svg">
<path d="M10.6667 6.66665C10.6667 8.5076 9.17428 9.99998 7.33333 9.99998C5.49238 9.99998 4 8.5076 4 6.66665C4 4.8257 5.49238 3.33331 7.33333 3.33331C9.17428 3.33331 10.6667 4.8257 10.6667 6.66665Z" stroke="#0E4F53" stroke-width="2.5"/>
<path d="M37.3337 6.66665C37.3337 8.5076 35.8413 9.99998 34.0003 9.99998C32.1593 9.99998 30.667 8.5076 30.667 6.66665C30.667 4.8257 32.1593 3.33331 34.0003 3.33331C35.8413 3.33331 37.3337 4.8257 37.3337 6.66665Z" stroke="#0E4F53" stroke-width="2.5"/>
<path d="M37.3337 33.3333C37.3337 35.1743 35.8413 36.6667 34.0003 36.6667C32.1593 36.6667 30.667 35.1743 30.667 33.3333C30.667 31.4923 32.1593 30 34.0003 30C35.8413 30 37.3337 31.4923 37.3337 33.3333Z" stroke="#0E4F53" stroke-width="2.5"/>
<path d="M10.6667 33.3333C10.6667 35.1743 9.17428 36.6667 7.33333 36.6667C5.49238 36.6667 4 35.1743 4 33.3333C4 31.4923 5.49238 30 7.33333 30C9.17428 30 10.6667 31.4923 10.6667 33.3333Z" stroke="#0E4F53" stroke-width="2.5"/>
<path d="M34.0007 10V30M30.6673 33.3334H10.6673M30.6673 6.66669H10.6673M7.33398 10V30" stroke="#0E4F53" stroke-width="2.5" stroke-linecap="round" stroke-linejoin="round"/>
<path d="M18.4165 14.1341L16.6021 15.022C14.312 16.1427 13.167 16.703 13.167 17.5C13.167 18.297 14.312 18.8573 16.6021 19.978L18.4165 20.8658C19.5073 21.3996 20.0528 21.6666 20.667 21.6666C21.2812 21.6666 21.8267 21.3996 22.9175 20.8658L24.7318 19.978C27.022 18.8573 28.167 18.297 28.167 17.5C28.167 16.703 27.022 16.1427 24.7318 15.022L22.9175 14.1341C21.8267 13.6002 21.2812 13.3333 20.667 13.3333C20.0528 13.3333 19.5073 13.6002 18.4165 14.1341Z" stroke="#0E4F53" stroke-width="2.5" stroke-linecap="round" stroke-linejoin="round"/>
<path d="M28.167 22.5C28.167 23.297 27.022 23.8573 24.7318 24.978L22.9175 25.8658C21.8267 26.3997 21.2812 26.6667 20.667 26.6667C20.0528 26.6667 19.5073 26.3997 18.4165 25.8658L16.6021 24.978C14.312 23.8573 13.167 23.297 13.167 22.5" stroke="#0E4F53" stroke-width="2.5" stroke-linecap="round" stroke-linejoin="round"/>
</svg>
